<mxfile host="app.diagrams.net" agent="Mozilla/5.0 (Macintosh; Intel Mac OS X 10_15_7) AppleWebKit/537.36 (KHTML, like Gecko) Chrome/128.0.0.0 Safari/537.36" version="24.7.14">
  <diagram id="2f404044-711c-603c-8f00-f6bb4c023d3c" name="Page-1">
    <mxGraphModel dx="1194" dy="789" grid="1" gridSize="10" guides="1" tooltips="1" connect="1" arrows="1" fold="1" page="1" pageScale="1" pageWidth="827" pageHeight="1169" background="none" math="0" shadow="0">
      <root>
        <mxCell id="0" />
        <mxCell id="1" parent="0" />
        <mxCell id="CMM1cMtTfkDz5n-KOBCl-206" style="edgeStyle=orthogonalEdgeStyle;rounded=0;orthogonalLoop=1;jettySize=auto;html=1;entryX=0;entryY=0.5;entryDx=0;entryDy=0;strokeWidth=2;strokeColor=#4277bb;exitX=0.953;exitY=0.407;exitDx=0;exitDy=0;exitPerimeter=0;" edge="1" parent="1" source="CMM1cMtTfkDz5n-KOBCl-215" target="CMM1cMtTfkDz5n-KOBCl-204">
          <mxGeometry relative="1" as="geometry">
            <mxPoint x="247" y="320" as="sourcePoint" />
          </mxGeometry>
        </mxCell>
        <mxCell id="185" style="edgeStyle=orthogonalEdgeStyle;rounded=0;html=1;exitX=0.75;exitY=0;entryX=0.75;entryY=0;labelBackgroundColor=#ffffff;startArrow=classic;startFill=1;startSize=4;endSize=4;jettySize=auto;orthogonalLoop=1;strokeColor=#EDC11C;strokeWidth=2;fontSize=12;fontColor=#4277BB;" parent="1" edge="1">
          <mxGeometry relative="1" as="geometry">
            <mxPoint x="125.41640786499875" y="293.1671842700025" as="sourcePoint" />
            <mxPoint x="125.41640786499875" y="293.1671842700025" as="targetPoint" />
          </mxGeometry>
        </mxCell>
        <mxCell id="CMM1cMtTfkDz5n-KOBCl-214" style="edgeStyle=orthogonalEdgeStyle;rounded=0;orthogonalLoop=1;jettySize=auto;html=1;entryX=0;entryY=0.5;entryDx=0;entryDy=0;strokeColor=#4277bb;strokeWidth=2;" edge="1" parent="1" source="CMM1cMtTfkDz5n-KOBCl-204" target="126">
          <mxGeometry relative="1" as="geometry">
            <Array as="points">
              <mxPoint x="500" y="320" />
              <mxPoint x="500" y="460" />
            </Array>
          </mxGeometry>
        </mxCell>
        <mxCell id="CMM1cMtTfkDz5n-KOBCl-227" style="edgeStyle=orthogonalEdgeStyle;rounded=0;orthogonalLoop=1;jettySize=auto;html=1;entryX=0;entryY=0.5;entryDx=0;entryDy=0;strokeWidth=2;strokeColor=#4277bb;" edge="1" parent="1" source="CMM1cMtTfkDz5n-KOBCl-204" target="CMM1cMtTfkDz5n-KOBCl-210">
          <mxGeometry relative="1" as="geometry" />
        </mxCell>
        <mxCell id="CMM1cMtTfkDz5n-KOBCl-204" value="&lt;font color=&quot;#4277bb&quot;&gt;CODE REPOSITORY&lt;/font&gt;" style="shape=image;html=1;verticalAlign=top;verticalLabelPosition=bottom;labelBackgroundColor=#ffffff;imageAspect=0;aspect=fixed;image=https://cdn4.iconfinder.com/data/icons/ionicons/512/icon-social-github-128.png" vertex="1" parent="1">
          <mxGeometry x="278" y="282.5" width="75" height="75" as="geometry" />
        </mxCell>
        <mxCell id="CMM1cMtTfkDz5n-KOBCl-215" value="&lt;font color=&quot;#4277bb&quot;&gt;DEVELOPER&lt;/font&gt;" style="image;html=1;image=img/lib/clip_art/people/Worker_Black_128x128.png" vertex="1" parent="1">
          <mxGeometry x="38" y="292.5" width="85" height="67.5" as="geometry" />
        </mxCell>
        <mxCell id="CMM1cMtTfkDz5n-KOBCl-219" value="" style="group" vertex="1" connectable="0" parent="1">
          <mxGeometry x="450" y="154.5" width="1010" height="700" as="geometry" />
        </mxCell>
        <mxCell id="144" value="" style="swimlane;shadow=0;labelBackgroundColor=#007FFF;strokeColor=#4277BB;fillColor=none;gradientColor=none;fontColor=#000000;align=right;collapsible=0;startSize=0;strokeWidth=3;" parent="CMM1cMtTfkDz5n-KOBCl-219" vertex="1">
          <mxGeometry x="2.1" width="1007.9" height="700" as="geometry" />
        </mxCell>
        <mxCell id="145" value="AWS EC2" style="text;html=1;align=center;verticalAlign=middle;fontColor=#4277BB;shadow=0;dashed=0;strokeColor=none;fillColor=none;labelBackgroundColor=none;fontStyle=1;fontSize=14;spacingLeft=5;" parent="144" vertex="1">
          <mxGeometry x="522.5723684210527" y="12" width="94.9654605263158" height="20" as="geometry" />
        </mxCell>
        <mxCell id="CMM1cMtTfkDz5n-KOBCl-218" value="" style="outlineConnect=0;dashed=0;verticalLabelPosition=bottom;verticalAlign=top;align=center;html=1;shape=mxgraph.aws3.ec2;fillColor=#F58534;gradientColor=none;" vertex="1" parent="144">
          <mxGeometry x="454.3651315789474" y="-44.5" width="80.27467105263159" height="93" as="geometry" />
        </mxCell>
        <mxCell id="CMM1cMtTfkDz5n-KOBCl-222" value="" style="image;sketch=0;aspect=fixed;html=1;points=[];align=center;fontSize=12;image=img/lib/mscae/Docker.svg;" vertex="1" parent="144">
          <mxGeometry x="212.31338815789468" y="435.5" width="52.44" height="43" as="geometry" />
        </mxCell>
        <mxCell id="CMM1cMtTfkDz5n-KOBCl-240" style="edgeStyle=orthogonalEdgeStyle;rounded=0;orthogonalLoop=1;jettySize=auto;html=1;entryX=0.5;entryY=1;entryDx=0;entryDy=0;strokeWidth=2;strokeColor=#4277bb;" edge="1" parent="144" source="CMM1cMtTfkDz5n-KOBCl-220" target="126">
          <mxGeometry relative="1" as="geometry" />
        </mxCell>
        <mxCell id="CMM1cMtTfkDz5n-KOBCl-241" style="edgeStyle=orthogonalEdgeStyle;rounded=0;orthogonalLoop=1;jettySize=auto;html=1;exitX=1;exitY=0.5;exitDx=0;exitDy=0;entryX=0.5;entryY=1;entryDx=0;entryDy=0;strokeWidth=2;strokeColor=#4277bb;" edge="1" parent="144" source="CMM1cMtTfkDz5n-KOBCl-220" target="CMM1cMtTfkDz5n-KOBCl-228">
          <mxGeometry relative="1" as="geometry" />
        </mxCell>
        <mxCell id="CMM1cMtTfkDz5n-KOBCl-242" style="edgeStyle=orthogonalEdgeStyle;rounded=0;orthogonalLoop=1;jettySize=auto;html=1;entryX=0.5;entryY=1;entryDx=0;entryDy=0;strokeWidth=2;strokeColor=#4277bb;" edge="1" parent="144" source="CMM1cMtTfkDz5n-KOBCl-220" target="CMM1cMtTfkDz5n-KOBCl-234">
          <mxGeometry relative="1" as="geometry" />
        </mxCell>
        <mxCell id="CMM1cMtTfkDz5n-KOBCl-243" style="edgeStyle=orthogonalEdgeStyle;rounded=0;orthogonalLoop=1;jettySize=auto;html=1;exitX=1;exitY=0.5;exitDx=0;exitDy=0;entryX=0.5;entryY=1;entryDx=0;entryDy=0;strokeWidth=2;strokeColor=#4277bb;" edge="1" parent="144" source="CMM1cMtTfkDz5n-KOBCl-220" target="CMM1cMtTfkDz5n-KOBCl-210">
          <mxGeometry relative="1" as="geometry" />
        </mxCell>
        <mxCell id="CMM1cMtTfkDz5n-KOBCl-220" value="" style="swimlane;shadow=0;labelBackgroundColor=#007FFF;strokeColor=#4277BB;fillColor=none;gradientColor=none;fontColor=#000000;align=right;collapsible=0;startSize=0;strokeWidth=3;" vertex="1" parent="144">
          <mxGeometry x="124.34703947368422" y="455.5" width="152.15460526315792" height="144.5" as="geometry" />
        </mxCell>
        <mxCell id="CMM1cMtTfkDz5n-KOBCl-223" value="NGINX PROXY&#xa;MANAGER" style="shape=image;verticalLabelPosition=bottom;verticalAlign=top;imageAspect=0;aspect=fixed;image=data:image/png,iVBORw0KGgoAAAANSUhEUgAAAQAAAAEACAYAAABccqhmAAAAAXNSR0IArs4c6QAAAARnQU1BAACxjwv8YQUAAAAJcEhZcwAADsMAAA7DAcdvqGQAAFhlSURBVHhe7Z0JXFNH4sfdo3u0u/vftlu7ba2gJpBEySnkBVRa76MebaWCtbbV1latBQSL2nZhbW29MQgooKJcbul269FbWw4RlVvE+0BAVI6cgBACyX8mvtjwmCQvyQsk+H6fz/cTJZl5L+jv92bmzZsZROvBVPsBnmdnBu/Lq+9zNheOZz6D/5gWLVoDWfok0cOadF6MJoPXDgJAXx7MyiuY5NVWMMl7Q04g5y/4x2jRojWQpNcP+o0mkx/UmcGtgcY3AgPgxGRvPaRgsvfNwsnMhfpBg36DF6NFi5a7qzOd76vJ4J4wNT4qAO4HwSTvooIpLAlenBYtWu6otn28ZzrTeWmgya9DmR+CCgBDCEz21gGyj0/kDMWro0WLljsI9vOBuaOA8VuIhidiLgB+hdl6YpJ3TE6gx5/w6mnRouWq6sjkztSmc6tRZkdhPQBwJnnX0uMDtGi5qDozfUTgin8cZXJLkA6AXzl1fCILww9Lixat/pQuXfiUJp2bpMngdaMMbg07AkBfMNG7u2CSd9rp6Zx/4qdBixatvpQ+m/OHznSfUE2GjwplbLLYEwC/Qo8P0KLV57rXz+ddQxnaVhwLACNeNXB8AD89WrRoOUOaLK4A9PPzUEa2F2oC4B6Fk7x+OT6ZycNPlxYtWlRIlzXqSW0GL8Xefr4lKoLZuSgz20vhJO+uE5O8duYEev0DP31atGjZI32S6CFDPz/dR4kyryOAMGmFzwScf5X1VMFkLynoz2tRhraXwsneCtA1iPpuKuOP+NehRYsWWWkz+RO1GdzzKPM6gmFWYDo3++6Bkc/ihzIImJUFjPsd0ciOUjCZeRm0CoLww9CiRcuSdIfYI8HV+RjKvI4C6j3VmcYV44dC6vgk75knJnlfRZnZEQomex8rnODtgx+GFi1aptKdZj3enc/6pOuATwG4SueCZr8WZWJ70GT43NKk81+HTwTih7Mo2GwHLYLVJyZ6qVFmtoeCSd6q8zNH5ahChHHKudhj+KFo0XqwBUz5W90pVkjnV6O+A8bvMJpWm8G73pHhU2RqZFvRZHA7QZ1SXbrf3/DD2aS8KaynCiZ5JRkG9hCmJgN8qKh0KrugeZ6wURUi0kPUwSK5IkQUpaPHB2g9yNKXj3xO++2oLE06txllYAgIglJtBvcK6j1LgDqPdqTzOfihHFLhFJYQmPk40dzWKJziff7mXH6V0fhElCHCS8r5Inp8gNaDJd3Zkc92/zRqozbD5zLKvEQMV/IM3s/g1WxQGNGm+1zWpvNm4IeiVHB8ALQIqlFmN6VgslfDlVncfGWwqBtlfATHWuYL6fEBWgNb+hLRw12/cFZ2HeDaOZmHKwNN+jzU+AD4eQsgRid1brO65AXRw/D2XuFkZktv4zM7y2ew8hTzBGqEyS2iDBFoVcGipJYF3MH4oWjRGhiCg2/6E+w5nV/5HAYm1RDNazPp3PMd6bxT8M+gPh1c9ANOFsIPR1qqlYJZ6nD+Fy3vC7j4j0jr1FTGEPhAEOzjQ/OfnMKqaAji16LMbQvqeSIFPT5Aa8BIf8pHpD3skw6MKu9lZAcBXYKj8DFg/FCkpVrJ9VKHCb5tCRfqIeowYbc6XJjWEmH71bdgCnNs7RxuMcrMjqAMFlxUzRe+gB+GFi33kq6Y9VT3Tz7rtFnk+vn2wa3BD0dKilDe31vChBuA4TVG85vSGi5UqMMFUfpozh/wIqSkDBFpUCamiGPyYNtbKLRo9Yt0lxl/1JexVnefYl9Am5ZKyAWAPnrQb1vD+QuB8RtQxifSGi642Boumo4XtyonB4Be9YrotkIs2aHE6PkDtFxYugrvmbpy1lV9OVvffZJVhzYtlVgPANDHDwTGr0AZ3RqgW3BUHSpg41WZlbMDQBEkalBgEr3cD5PLxZJQfWDg7/FD06LV/9KVjmQD438PjW+kvwNAt4LxR9Ck/xJlbFsAIdChXin4EK8Wqb4KgPv4YRdkYvE0/PC0aPWPdFWcx4DxpboKdpep+V0hANQr+E+gDG0PIEjO49Ui1ecBYESMHVGOHjMcPw1atPpG+hLRQ7oydqiuzFtBNL4RZwUAnBSkzeBWaDN4ezRpvDfxU+qlByIAAHJMolFgmLTZz77pzrRo2SR9GXuiroxVhTK9KVQFAFziGxh+b2cmd2lnJs9Pn0pu/b0HJQB+BbulFEuW6AcN+i1+WrRoUSfdGW9vcNX/BmV2FPYGgCaTp4bz+MGfo+y5x2/UgxcA95BjWLFMIvHHT40WLcekr/R5FFz1N4CrvgZldHPYEgDadN4FTQZvHTQ8vGWHH9ohuXYACOPgg0Do93pjSwBAQLdAJxdLsuUBAfS2ZrTskz4n8Pf6ctYSXTm7EWVwa1gLALiqryadJwVN+zH4ISmVKweAOkRkWC+wJdh3JPh7jDpYVEL8jCm2BoARJSZpVYglMdWBgfSy5bTIS1fKngCa+5UoY5MFFQDgKt8AmvcbNGncUfihnCZ3CABTgZ+xQKvgYxAGN4iftzcAjIAgqAVdA3rZclqWBUzPBFf9bJShbaVHAKTzSjozeUt0X2B/xg/ldLlbABgFu0DK+aMnqoJF2coQQRf8vKMBYASEwM8yDKMfO6bVU/py3t+B+bfqyr07UWa2h+5T7Evgir+1I93HGz9Mn8pdA8BUbXN5z4DPxyiDRp9HGdoe5GJMC4IgST1mzBP4YWg9qDIsx1XGWqgr876DMrE9gPoawGsMDBX8MP2igRAARummTv2jEsPekWOS6yhT2wOoq1kulizTBwX9Dj8MrQdJ4Gr/vK6cVUE0sL2AFkQ1IFRXOKTPmvmW1LzC729kH/6xhjpc8CNeLVLODgCj4D1+pUQSBAxMWYvAMK0Yw6bih6A10AWX4wLGT0OZ2B50FewmUF+Uvsq2R2jtlWGXoHTejM4MbjTcLcjSSr8Nyzh/aQkXxMD5/ChjW6M1TCBrCROGWrtK9lUAGAWDAJh2PrUtAuy/Cj+/YfghaA00Xbjg/9euilHR4CrdgTKyrQDjq0Bz/2NdBfcR/BBOkT6V809NJu9Vw2zAdJ8bpncVyD4OrHqfz2wJExxBmRyFOoyvBcGRpF5Jzqh9HQBG6UWih+DsP9Cvp2iQ8N604iZ//7/ih6Dl7tLro3978Xrgay3n+Ed05exSwDmUockCAqQbXPF36soYThlEgqPgnWl8f006b7M2k3e2p+GJkAsAo1rC+BNBa6AKZXoj6jDBL+DVppHy/goAo5RjxjwKruCb7xkYbW6yyHyfO1nn9V5pDTNyIWhpkNpHgZaL6kJN4OjGi777u8tZdSYG1gED54Gr901TY5MBlCnTlbAwvHrKpM8O+p02jTtek86NB1f5erTZe6Pdy7ugj7Ztkot+iegh2KwHzXtlT+Pza+GiIfjHSKshiPMX5TxBM8ro5lDPF812xuCbSixmysWSoyhjW0MmllyvH/l6cS0zUm+kjhlZUsNcNRavnpa76ELNxKdvXpSs7yrnmB3k05V5t4LXXNAiaCe+RwQ+9QcH+PTZgyj9T9uW7jMEGDmqd9PeMpo0nqbtM34eMKwKXNHroHFtvVqplvs+Dq72UhAEajhOYHOQgJYKMPNCZbDwVkuwUK4MFhQYVvZFGB4FKNcESFHME0yg8koL64KTfkh3C8SYskkwO/cmI1xjav6eRBy54RVBjw+4uqqqgv5w9erYd9rOco+intFHAQKgXlfBKoAtA/T7rO915cxn8EM4rJIk0UPqPaNeNKzzD1f0RRjcHPDzHbH8/JaVghrTq/c9+KdU4UKbWydw4RD8j6SlelWIKYNFJ4mmVgcLr6tCBGXEn1sD1HVZFSJcpQ4JpKxroPL1fVwhlmQiTQ8A3YXuZtGk3Drv0Ea06XtSx4jQ1DIipZcZK+jHjl1Rl64+N0N1TvgVHJxDGdka4CpfDkLg4v2/G+phLcGrd1jXNgz/vwsbvUMvbvSqvbKR0dmwa2R+RzpXhjI6ivZE3rnWCOGZ3sb/FdAa0AHSWiN9/4kfllLJg0RDlSHCNJSJTVGHCEsVIaIrqPdQKOcKb8kCxflKseSuAsPSmsViq8uQkZXCTzIXmL2pp/kDzt8c+XYVyujWqBsReauGGbFEP4ieP+ASulgdyGq66Le3u4JdY2poe4CtBhAE+SAIDutLOJQ8SXZuI5sJTC+9uMmr7dImL70pV7cw5YqUkbngym5+r4C9vPrWtYICaG6U6ZGECVvtadabE+znA6PGgGZ+O9G85gDN+05liCgfdAvMjg+oXxG1KsaLc+8Zv+fV2bDaD4ZNxE/BIbWIxU+CYxxWiP0bGrhB+TXMld0oc9tGRClgHH4IWn2typoxj9ZdkcR0VY48jTKzPegqvLXgNQbOEMQPY7eubBgx8tJG5kFgfh3R+ESqt3ldad8/6rSp8Tv28Vpb1wly1aH8dqTJSWAc2LO3j32/nx8iuEM0L1ngRh8gDHJN7xTALcOUU3xPysXiRlPjo8FOKiSSCfgp2S34O7jp9d6yOmZkB9rQtlPDjNSB1y+qvaM88cPQcrb0+qDfXb0a+GZrJe+wzsZn9C0BzF+jK/cKwA9jt0BTfyi42icB43ehzG6JW3Hs8s407tW2Dfyc1jBBE8rU9qAOF+S0hvL4+CmSEhycA2Y9YzSto4BuQTXsGqhnjS5RSMQX0WY3z73RfUyIn57dujFilRBcua8SzewI9PhAH0nRNP95VVPIGc1FSS7KxPZiaPI7OHf/6ubhg4Hp4y5tYmpQ5ibLjX9zKlEmdpT7u/+8L7a4hZhqnq8XfBIPZWIqMDTvEQYnAyhrWOhD6e8/Aj9du1TtEfp3EAIHUWZ2hHPjth45My0pNDsomx4foFIy2bxnlY0hacD8eghVAWAY+S9jb3CkyQ+n4gLTL7y8idGMMrStOCsA7mNmfEA53+dRVbBwg62TemxF7ifuQpnbFkAQaBRiyb/hQ0L46dss2CW4wYiIqmFGUDAecI9zz23/5cy0ZH3FtOTSiqlJTlno5YFSff0LDwPDxyibg9uN5qcqAED3oUVX6v0yfii7dOlzJg9c9QtRRrYXpwcATmuY8ErLSlEQnBiknC9cAozfiDIs1TjSAiACWgNXHB0fACEwt2ZEZCvK0LZiDID7TE06Ujp9twd+KFpkBa+qysb5QerGkBpT41MVALoK9i3dGZbd/ckLG73/emkjMxZc9bUoEztCXwWAEfVrwh9RRnUWVAYABHYL4K1DeN8f/+exWdWMlQJ4ew9lalvoFQCAyqnJbaBbEFM4d6tLPCXq8lI2BY9WNoWcQBnfiCMBoCv3PqcrZdudypc2MP0ubvK6gjIvFfR1ACgXCI+jjOosqA4AE2478lgvHMmvY0ScRxmbLKgAMFIxLakOdA0W6gfp6ecLUGprCn5a1RicpGwM7kaZ3hR7AwA+AwBX+cUPaZNyogN/D5r7UZc3MjpRxqUKOgDsB28NSPUc+x7NruWEP1bHiDyOMjcZLAWAERACuWcn7+Thh6Sl1wf9QdUYEqpuDFahzI7CngAwTOm1c7GOC597e17axDyOMizV0AHgOHIMK7b3TkH9U9EP1zIjfkQZ3BpkAgBSMSW5+8zU5LSKSYmD8cM+mAJmnqluDr5GNLg1bA0AYP5DcNtu/LA2SVfKCr60hXkDZVZnQAcAZSibheNexP8ZbdJlxoo/AkMfJhrcGmQD4D5TkhQgCKKqgrL7ZDEZl5G6KYQF+B5lbjLYEgDA/F/CvfzwQ5MW3BcAlN0M67i8mXkLZVZn8AAEAGimIw1LOXe4cwtqGRHr9YOibb7NWyJa8hAw9ZdEk1vC5gAwMjXpUuXUlOn4oQeulMq5jymbQqTKxhAtythkIRsAunL2T/Zc+XWnWY/DssZ6Lm+iA4Aq+jQA+EEF0Jg1jMjvrg2P+j/8n5e0DCEwIvIbotHNYXcA4FRMSz5aNnUnBz/8wJFeH/h7ZdP8Jcqm4CaUoW2FTAAAA5+wZ7kufTmHrytjXzetiw4A6uiPAICAELhU7bWShf8zk1btkPA/g7J5pkY3h6MBgNMJkJ6aKh0Y04oVTfMmgCv+WZSR7YVEAJToTjFs/gUC40/XVbDvEuu7tNmrHmVWZ0AHAHWYBsA9IuQ3vCLG4//cpAVbD6B8Wc+6ekNRABionJLc5NbTipUNCxiqpuBslIEdxVIAABNf0lWOsjjfHSVdKWcWKItcMJQOAOro3wC49+BOjdeqefg/O2ndYqx5wto8ASoDwEjF1KQSt5pWfPv2gkeASWOUzSEdRONShbkAMKzuc3bks/ipkJaulP0aXAsAVSfk8iavmyizOgM6AKgDFQAQOP8fNOuX4v/8pHXdM8Kjjhl5B1UnxBkBAKmYlqSrmJac7dLTiuH0XVVzyEJg/Nso01IJKgB05d5tunKOH346pGXYAbiM3U2szxQ6AKjDFQLAhA34fwPSqvFeNbqGubINUZfTAsCIcVpxdWCqa+12fOrKrOfVTcElKLM6A2IAGFbyKWfNwE+HtECZcGB+5FqApoAuQB3KrM6grwIArjegDhcuky8QzFQFk1++y1FcLADg4OAOWxdMqWWuDMEXA+lRl7MDwAhoEdTCacX46fSvKiomPVJVPf5izc0X8lSNwXUow1IFvH3Y0Twtv6tRcr37HDfXuCAIMPJ7+OmQFjD+Ymvm7z7Fvt3135H5qj2jqq5sZlSiDEsltf/mlCnD+RdbwwX5reH8ZpRxHUUdLuiEqwErQn9d/wA+EagKEYaqgwUqlGmpoHGOoPqkt3dhOWtUmcwPu4wyLJU0CAOKjg6dernUY3FuzYiIFqJZCWzHfxWkBQLg38byNSNWtVb5fJZbKoq7Vj5x18+VU5O6UMalilOTd91KD0g4vdt/d/9vYFLVEPiX8zfG6yEXbzzfdvv2i7mgG3AXZWBHuNs8s0zbNPZaV2OA3kj3LfEV/dmRMfipkBZoMSyyZH5diXdr95FRRzXpvBbjEl1wRd6mJE7hxU3UDwheXc+8oYzklZgatTVcqGgJE+aCq7Rd23ohCRMcUYYLGPivoZfghh3KEKHUuC03FSiDRK3lQk5urqdXO0CP031xJO+kTIz1WKyTCpr8/M/nD59cfvCZ6Xoj3z0z686lEe+dRF21jYD3PsR/DaRkWE/Aa1Xm+VGf/FLClzaUCOL09xm943zF1KQKlHkdoWzqrrb/jkvMTREndKRIEvTxgfF/wU+n/2QaAEYu1Uy61XwnqABcsXUoM9tCS9PL1V0N40pMjX+fhoBivd62Bz/05ZwgcwN+MBS6fuEUdmZybxqNT6Qjg9tWF8fOBUHQjjKzLVze4KVoiuLmqsOEGqRh71ENKCT8zCbAFb+sJVT0HP4rsCrFK0KhMtixsQFliEh3NXBUHjB7vYnxe3B8OEt5QyDMlfuJO1BmtgW5WCI7ywnMOzRkWpep+U05NuTlC9dHhJ1BBQCkhhERjv8KSCkH9MWL+dLKHubHKRZIdaX+8QXwKUCUmW2hfHJy9/fP7ypIwRIaofGNuGwAGLlWO61C2TjvIsrY1mhpfEXR3jAhV9sQoEGZX9soadE1jvHCT4OUdKWcqfjCn73M332CfU57gFuJMj2Kjv2j6qtjvQtQxrbGlU0M7a2PRtrUzIcmBq2CS6j3zAGa+7dAuCyxdxceVYhgpjpYdANlcEvcnME7d5zBqESZHsXpEd43bo/2K0QZ2xpyTNJ5gz8m78gz01Qo06M44bGg9MaIlfW9AoAZ0V3HiLRpkZgi7vZRpby4u6gQgBQL4trKA3fmlk9LakWZ2xo5E3ZV7JYkXDI1vtsEAORc9XPddbdnFYBuQSPK6ESUjcGGfr62MaAZZfz7NPm/ip8CKekqWKOA0ZW9jA/7+V/6FNi6SYcR+e5R5Zc3MS+hjI4C9vNbwvhXUIa1BlzXrzVcUGBtwVDYooD9fLhFOP717Vb9C6KHFSGiKNA9aEGZ3ZTmlwR3TrPZOTmgiY8yujXg+IBcjF1CGR1Fg69/6VGPKVdQJrfG4aema0o9FxUQxwdAV+Au+JkI//qkVMyPex9lflNKR8fdqpiYBFsEOpTRiZyanFQP+/lE05viFgFg5OKNCa13bs+GQWB2fsDdhtml2sYxV5CGN0HbFJCKH56UdKXeT+vKvGtNjQ9+1tb1jQ9ck78VZWxb0GTwupt2cQoubWQ2oUwPufYpq5rYz7cXw75+5sYHQD9fEcGlfBur5lf9hsBNQWDTnmh8RbBIU4WNzMsZylSjjG0j3edHcQssjQ80iyXXCxkTi1DGtpVvh8xquDB8eT4wftf9IGBE3rg6PIL0o7pwkY8SvvQQyvi98EuoOjMl6SzK9JBS0M//cmxCgbGfbwm3CgAjV2onVSsa5xaaGr+l8SXQzx9bhjI7EW2D5JIeHBM/vFXpmvz/Cvr8J+4bH/bzj43MA/38OpSZHaE9bZSyLs4713Rl4CsbvMn08+3l/vgACIMi9UqR02eMqYKFYhAEp4zmr5nEPZnv6XUFYWSHQI0PyMVixYWRgbmHn5qiQZnZEQzjA4we4wMn4GPB+Ne2qhLRln8U86X1SNMTAN2C7rKxiQVnpiY3GI1v7OfvlsQ3ocyOwi0DwEj1zenFysa5Zzuan8vXNvhrUWYnAszf1dkk8cUPTUrahoAM7R1M0X2em9d9fFSZNpNbhTIvlbSmcq9d28wqvvMh7OcLFSaGpRxg/DrQ13/Z3s0/7BEcU1AHC98+4e19FGVeKjk1glXd4Cs+fUMwNvfbZ6c2o8xLJYWeC05e91pVVcHbkl/K3x6Lf2VSKuLHTYSDfyjToyjmb1edGZ+YkzMhqWSPJOEKyuSWcOsAgNy5OTYfZXRzgKCw6R+kq9H/LdPyHV/wzqAM6ww0e7iIDTypQx3Gvwu6ARuaVvn3273gHA7nLzkezJg8D68OlHmp4pehnEaUWZ1FvndUvtGkRYIdNg0KggBINTU5GXZjCddRBrfGAxUAwPw1sDmPH9aqNLcDRmqbAtpM6xgwAeCkfr69yhkxgpHrwcxGmZcK+jMASvk71EU+sd74V7WqQs7Wx0AI9JwXYAU6AEigbfKfhR/SqnS3Jz0CugvniHW4ewDAW4HqUIHLbkiZN9RrfI4H+dt/ZOnPAIAU8+LOFGLkl/UGTfvXTctbgw4Aq/hn44cjJXiXAFWPuwaAYb5AmDDU3vv5famcQYG/z/VkLskZ6tWIMrM99HcAQMBVPQH/iqRUzI87RqzDHHQAWEDbEKDUNY59Cj+cVXU1jglC1QNxtwAwztuXR4lsXs6qv3V8qM+jOR7MDTlDmRqUqW3BFQIAUsyXzsW/nlWd5u7wKuVJ21H1EKEDwCL+pKdn6pVjHtU2+t9G1+NeAaAOFx5VR/Ddfn24nz29vYGJvyGa2hZcJQBKBXF3YB8f/2pWBVoNMah6iNABYAZtY8AN3WXyG0CC1kIyqh4j7hAAreGCi63hogG3QmzOMOZEYOYqornJ4CoBYIAftwf/SlZVxYn/C2gF3EbWYwIdAOZoGPMafhir6mz0HwsCQIesB8eVA6A1TCgHTf4ofbR9u9q4g0pEoodyPb1D8zy8lCijm8OVAgDe54f3+/GvZFUlQulyVD2m0AGAoimgkuy23bCVgBr1J+KKAaAO42tbwgVJ6hX8J/CvM+B19GnW4zkeXtI8T68ulOGJuFQLAFAsiLtM9q5AiSjpoWK+9AqqHiN0ACAAzf9p+CGsClz5/42qg4irBQC44v8MXn3wr/HAKdeDyQb8gDK9Ka4WABDQEliPfw2rKhJsD0bVYYQOAALdDZIcvHqr0t8We2qbJB2oeoi4SgAY9+bHv8IDr9xhjJk5nl7XUOaHuGQA8KWdpYJYNv4VLAo+LAQ+X4qqB0IHAAHYn8ertypto38aqg4U/R4AYcJW0NyP0a2wb5/CgawqDucPcHwgZ6iXyh0CAAJM/RV++lZVItwxBVUHhA4AUxoCivGqrUpzB/MBzf/uXnWYob8CAD7Hrw4XprW8L7Z5v4IHTXlDWU/leHglmY4PuGoAGBBKMfzUrapUEFeGqoMOgB74k960obvB/7ve5c3TPwHAP6UKF5L+T0Lrnn4ZyhLlejCPu3wACOJy8VO2qhKe9FVEeToAjMD7/nAfQbxqi+pslIwzLUuGvgyAjj38MtDkfwU/XVp2yjA+4MEpRRnVWdgYAHqytwVzAqN/X8yLqyGWf4ADIDCvh0mbAiLwai0KbkICWgone5QlgfYArwJlVirRZPBaO9O5H+u+wEg/PELLsn7kch8Bxlx38Ompd4lmdQa5rNV5RJNaolQgPQ0H+vDTtahiflwEsTwIgGsog1vDbQPgYvV4bfOF0fm6Cu873ddFhdoGfyXoy6v0cnJz3rWN/tNRBjdH5w2svusgP1+Twb2lSeOBV143yryOYFhTMJ2bfTdD4LrbN7m5vnpm6pCDT09LQ5mWEp6apjkw+NW8zMFLZce81xUWCaStRLOahRc3Bz9NizrlJ/1bCV+qhGVOAuN/uyD9+FevZlTvDdxZiDK5JdwyAOouSsq7y9nXeqzPVzGyuaval/S67N2N/kdRRicCQqWt82dRj/X9DaRzz2vTeaRXALZKOq+kM5PrPhs4urmAWZ8/+NT0yl4GdoD/PjW3KH3wktqMJ9/VG/nPP9+THR+18TRcwquX4QkU86V5+OlZVZHfjnXfz9ufd+jNLO3hxQf0RrKD9pUCY18kGt0cbhUAV6+Oqdac4RSaGt8UXakXF6/SovCRf4tTfg2U+xV1ZvJqkYYFwCs2aBEUgj/bvTagJsPnFjjGEn00uRmLtKgTfOz462dmLPn6mWlNKEOT5aunZ13LHPx2ianxiXz17MqLp7nbKlDGN6VUKCW1mvCRNzKZpsY35cibB7qzZu8tSCbsAYDCLQLg4vXnWpVVglydma23IboyVhlenVWB5v8+pOFxtFf8Lmi/IN/X16T73NWkc+HqwD1bCRYAn9UApLp0x5fdpuWYvhgy+bGvn54mPfiM+Q1BkDz9gixr8Bt56U++24UyPYojHlFFxTxpLcr8Bmx4UOjQoqwiVAAYOfhmVmvalJT7uwChcOkAOFcd2N10wa9AV85uRJneFLhJJ16dReluSwZrm/zbUcbvqpc0a74V5gFDd6FMaw1g6DtkxgfA5460Z/oMx0+Jlovo4NNTBSAE8pFmN+HQUzM6YT8/48l3VCiTW+WJpZqjjJi8Ur5UTQwA0FXoqOAmklpO/PDirPdRxifyvwXpN8yND7hsANRc8a8A/fyLKLMTMezUc5rzT7w6i9I2+H9CNL72TkBnV64oDzTHVSjD2sy98YFetwu1GeDnadyp+KnQclF9/fTUmSAIbqDM/9+n55YC419FGttGDjy5TJbP+SyvlCft6hEE/Li1+KlY1HdvfvHE4UUHOlGmR/HlK/vKUwJ6jg+4XABcvjrudkflqNMoo5sDXP2/xauyKN1lxh+7b2HHegRApd8JbSb3CtGsVNCR4VMEXmvBFV/Wme4Tqs92/eW4aN3T4adeePjrZ6bFfP3U9HZo/P/Bfv4TbxWhjOwoXz2z8tpp7jbT/QHrkpYkPYSfikUBY39DNLpFFmV1Zc3ck5PsH9/gMgEAtwe/VBt4Qn1OkKOrYN9FmdwSoAypmX+6Uu+X4ee7L/gUdV3BTnZk80qIpqWcTN4x/de/bqM9kNQWLHha+dbYLeols3fIMGxAPpH4v2enjvjiydf2pz/5jhZlXio5MnztqcIx8UXfvJ5ZceitAy/gp2BRBxf9JxhpdCsceiNLnTYpOdclAqCk/oWHr1aP6bHtFll0Zd6tusIhpCbMgJbCQWM57SGfXKRhKUaTzk3CDz9gpA/i/EEVIgxVBwtUcGcf5VjsuByTdCswLE09ZsyAW5MgffA78SjDOoOvX9x1/J5Jsw7gh7eow0sOP3xkUVYL0eBkyV6W7eYBUM46hFdjUboqzmO6MpbGWI4OAPt0b7dfwTXjtl7GALi/9ZYfJpeLJaH6QHLTsd1B/REAhxZltR1cdJDUHhagWX+QaGyyDIAA4LyDV2NRICiWm5ajA8A2qecJ2Opg0Q+mxkcFwH38sAugWzAgBjz7pwUAWHSA1HJ2hxdnvmNqaltw+wDQl3CG4tVYlK6cfdK0HB0A5KSciz2mDBFKlSGCLpT5IcgAMCLGjihHj3HrW579FQCgFfADfgoW9d1b6UMOLc7SmRqbLG4dALoydiVehUXpillPwR19TcvSAWBZ+iWihwz9/HkiBcr0plgMAIAck2gUGCZt8u+/PQgdUb8FwJtZ2m+WZj6Kn4ZFgc9XGsvZgnu3AMrYG/AqLAqYfzGxLB0A5qWcP3oiuOpXocyOwloAGFH6YfVyDFvYl7sQU6F+6wLcg9QdLtBd2EgoRwr3bgGUskntcQcC4CtiWToAeks1z9dLGSw6gjK5JcgGgBG5GCtq9gtwmwVO+jMAQNN+P34aFnVk8YHnTMuRxW0DQFfu3aYvEVmdLAE/o6tgq4jl6QD4VYrXeX9XBQs3KENEGpTBrWFrAEBAt0AHbxu2iF1/ibN+DoDG6Ohoqw+KwYlDhxdnqU3LksGNA4BF6tFJXQVnPKo8HQAgHKMH/RYYeKFynqiBaGpbsCcAjCj9xC0KsSRGN5X87k19rX7uAsCHesT4qVgUCIBfiGWt4c4BsBkvblG6cvbnqPIPegAo5gufB+atIJrZHhwJACOgRXBZLpGQmv3W1+rvAAD8Cz8Vi7JnHMB9A6CC9RJe3KJ0Zd75qPIPagDI5o1+VhkiTEMZ2V6oCAAjcrHkaLOfn0ttaNrvAbDowE/4qVjU4UWZL/cqawU3bgEwn8GLm5Wh/w/HChDlH7QAuL2A+wgwa4wyWNBONLCjUBkAENAa6IS3DeUi19jSvP9bAFnq7KBsqw+Sff3GgWd7l7WMWwaAroxVhxe1KF3ZSF9UeciDEgDwlptyvihIHSKsQZmXCqgOACMgCJoN04qD+vcpShfoAui/eSuDj5+ORYHP1hPLWsI9A6Cc9SVe1KJ0ZexQVHnIgxAAyldG+4Lm/gmUaanEWQFgBIRAqQzDAvCv1edyhQA4/FbWcvx0LMrW5wLcNADYpBb/BJ87gCoPGcgB0PyW3xBwxc9Uhoh0KMNSjbMDAAJvG4IgyJYHBJCa+k2lXCEADi3OysBPx6JAAHyEKm8OlwmAa9fHXQdX7G6UWXvDIbUpJugqVKHLs/Xdh31+RhmWavo6ANTh/MUtS0WFKKM6C8VYcS7KtM4APm14kxnxOv51+0R9GQD/m5OYhzIqCICz+OlY1KE3s15BlUcBpxqnLUh7BC/af9I3BP6ls8Ff3lUnPqerYFWgDGsK6Nvz8KJmpc8e9DsQKL0WEdWVsmRd/+PmGRblzPApAgZVoIxLFZp9ko34KfWJWt4RrVfPFylAC6AYNP8voQxLFYoQ4R3ltNH5SomkVSGW5CrFmBplWqqQ+Y0tv8l+51odIzIF/7p9orQn3l6X8cS7VSjDUkX6M+817hFuykuWxLcfmJOad3jRAVUPwy460JkdlP0H/JTM6vDb//HtUc4M/12YVrpa9O/L4UPC+3/zGRgApst0dVcLi0A/H9klAKbW6as4Vpst4HPMHuVKWZqu70f2WvdPk8FVgBAo0KT7aE1/7ijaNL+r7TvnF99NXJiMn1KfCJh+j9GgymBRtypEUKAMFjaZGtdR4IxB5ZzReQpM3GJqUNBMvwP66vlyP3GX6c8dRY75Vzdy5xfWMiP1kDpGRCr+dftE+wYvjk8d/JYu7cl3CtMHL6lHGdhe0gYv1ewd9UlBinhHi+lafbvHJMq+DE4DrYGsLqNpD72VNRI/JbP6YfEXj5kancjBN7KurQ/cVLScvVYPcckAgGgbAjTdl/l5oB+v7mHkcnY9XsyidBXeM41lun7hGNbmI5rUFG0G7zpsEaDeswVNmlDekfxy3t2dr2vbd76u788AMKIOESlBCOQC43YQ37MVxVxhkXKcpBZl1Pv4YRcUYqwC+Z4NgBZFa4NgZu5Nr4gOo/n7KwD2DX5LD0l94q3WtMFLckGLoB1laPIs1e9nfliyG4uvMzU+kb3P7Tr/9cIM4/Lf5B4MWnxAYTT8fRYdkMVN25H3HufDLqP5XToA7nNLcqe7ipuvq2B34YYmtZMqCIoPuo9zzmsPcG3azBMEQak2nXsV9Z4lNGk+2o7dU/M7di5shsY34goBYAQEQXVLsJ3jA/OEF1TjxTaZGj70o8Awy2GBALQkupt9xxfUeb/faGp8VwiA+zyxuCb9H+8Uos1tmf3PRlxM8Y07hzK8OTKmpRR+FZIRhZ+SRR1adKDEaPxDiw+0730p+VjoqI9UpsZ3nwAwUut3AYTAGWBsUv0/7ZfcjaCfr0OZ1RqG8YF0n5/JLhPekTqu9O7OBZdMje+KAfArgjLS4wPBAplyxug8B5r1GnAlzyM9PiAeU1XPWVyFMr4RlwiA+7xdlv7ku5dRRieS9vQK2W7BphPA0N1Eg5OE3J2AxVnZ0PzZC/YXfcCPqUUZ34j7BADAsJ1XjV8YXsyi4OYbKLPaBlcG6jG7UYg2XVTdkTQvD2V8I64ZACbjAyHCRvT7wk7Yz1f6S1RIo9qIXCyRwSAwGyRi7NYdbnBBDTNShzK9Ka4VAJBFWtAtyE9/4l0Zyvjpg5cZ+vnJWHwrwtSkScYSjuGnZFH75qas+RhbX4UyPBG3CoB7+L+FF7Mow2abCNPagzadd6Gjx0Yfgtb2lNm5wNztKNOb4qoBcJ9gUSsIgx7jA+ogYalirN9VpFEdhTA+oMQkbbCfX+O18i7K7ChcLwCMLJanDX7HZKuwe/38FHH8TZShbQUECKlbgcvZa0JRZkfhdgGgvTOG1BbKnZncm6YmdhTYndBkcE9o9kz8uWPXa7dRZkfh8gGAow4W3VC9IshRThCX9DCs08BOykaPz7npteI2yuSWcN0AuMf+wW9f3D90ZX6yn/Q8ysj2kixOaMRPyaKWsde8gjI7CrcLgM6GAKtbaMPn3Km+rWekfeeCcqLJLeEuAQBRTvctQJvVOdQx3y9BGdwarh4AkD0jP8lHmdgRkiXxuiSR9R2DlrE/HIcyOwq3CwBdk783XsysdFmjnkSZlwroAKAOOgBsZ7f/jqfx0zKr5azVXiizo3CJANDdnvQIyuwodLes7zzTsV/ARpmXCugAoA46AOxAnMDGT8usVjCi/4YyOwq3awHoqwP/hBczq85MHxHKvFRABwB10AFgO7uwHUL8tCzpNyizo3CrAIC3AfV660tKd2Zyx6DMSwV0AFAHHQB2gMWReix6uffaTpThibhXADQF3MWLWJQ2jT8JZV4qoAOAOugAsJ0kLHEifloWtZy1pgVleCLu1gKQ4UUsqiPdZxbKvFRABwB10AFgB1jCTPy0LGoZe20zyvBE3GoQEATATbyIRWkyuPNQ5qUCOgCogw4A20nG4l/BT8uilrPX3EQZnoi7BQCptQDpAEAb3Bp0AKDlSgGwW5JIajGcgRkATQENeBGLorsAaINbgw4AtFyqBSDZQWrvBNAFaEQZnoi7tQCUeBGLogcB0Qa3Bh0AaLlWCyB+An5aFgXMrSSaHYW7tQBI3QUARg0gGpcq6ACgDjoAbGe3/w4JfloWBboA7SjDE3G3FkA3XsSiNOk+QpR5qYAOAOqgA8B2kv3jSe0PAMzdY+Ufc7hVAEDgZ/FiZtWxn+uFMi8V0AFAHQM5AHaPXOecAPDd4YWflllFcCMeQZkdhfsFQIP/CLyYWenS/f6GMi8V0AFAHXQLwHZSA2P/jp+WWb3PiRqKMjsKtwsAMo8DQ2nSeS0oAzuCJoPX3Z44/zTK6OZwpwBQTfXNQRnVGcCNPuqYoSdQBreGW7QAfNb9jDKwIyRj8e36QXqrU+GXcdbyUWZH4XYBoG2QzMWLWZQ2g3cJZWJ76UjkVqkjBWdbIkR3Wz+fCVcDakEZnog7BID6FZFcNt4vF5hSIxeLy4FBLxENSy1jz8nGRlTIAjdp6nkf5dUyItQoo5vDlQMg9emld1IEW07CZ/dTsPiiFHFCDcrM9hFfjZ+SRb3H+XA8yuwo3C4AuhoC3sOLWZQmnfsLysi2otnDu926VlCgDhfqWsKFeiPqVb4NbbFB+XcTX+9CGd+IKweAcp6wUzlZnC/HsGZTg8JVeRUSSYFcjDWZ/pwCbisDXs+Xjd3QJQ/cpL/PmM/v3OSszq9hRnSjDE/EFQMg9Ym37qaMXJfbe92/+M5kLCEP/FnV8+e2kyxOKMRPyaJW+Hw8G2V2FC4RAPp60cNIsxM571vZeURAamnkznRuBsrQZNHs97nb+gkvtyVM2GpqfCKta8ZcvLvj1TMo80NcNQDUs0aXKvwlVxAmvQ9oDShkYomhZYB6nyxw3T+Z/+xc+bjPWnoYn0Aj9um5OkZkJcr0prhWALyt38tYY3Xdv2RJggwGQbI4vgv1PhlAq+Ir/JQsKvbF1Pc/m5xQ9d7Ij86iTG+KW7QAtDXYra6vBQVwXT5obLyYRXVmcKMtrehrifZYXlHLSmEdyvDmaI0eX9SRsLDG1QNA/bLwumKMuAhlVHOAALiuwOAa/+j3zQH7+Qrx+ALFuH/VogyPQha4QdcoiikEQXATZX6IqwTA3qHh51P8pGdRZjUHaCFcS5YknkG9Z5n4tp2BO2PwU7Ko7XP2xW5/cZ8+dnZq98fjtuUtZ629gzI/xLUD4HZAm+ZHUa4mg9duNCfcxgsvZlEgAN6Fn9dm8C5oe6zoa4GdvAvqCOEZlMHJoF4p7Gz7bEYeML3K1QIA9vOVgX55oFmvRZmVDHCbbrkfRnK1YEM//wzK5GRQjNvUdpO7NreGGdlrteD+DoC9T797+34/H2lWEtgwPpAckFi0fWZqbeyc/SvxU7Ko7XNSD8EAMBI7Z09rlN9nuajJQS4ZANo7AbquU76nNZm8RoRRST0QpM3wmWZargNu+5XuU2/6MyOafTxZ68f8PHU4vwtlbFtpjRgtb9t6b3uw/g4AYz9fJpHI0Ea1DXBV7zRs9IGZ3S/glmzMmzmywI3dKGPbTMDnt26yV/fYL6DfAuCJt9t2+xjW929HGdV2rIwP+MdX75iyu8ho5G2z95J6FDh2TupZ0wAwsvmFlPpw/roCYHydywaA9rzfee0Bn8soo0LgrTh9NsfqLqnIyUDpvBZQ/pixRQFaE51t6/nHW8MFapSRHaV19Zir7VtfWo+fUp9IGSzcbTS/4oXRJxUS7DLCpI5D2OiDbD/fXpp8P6moYURe7I8A2Dv47fi9Xh+e3i3e0YA0qoMQxwdAF6F15/O7cmNf3N9hauC4l1JZ+CmZFbxNuP3F1FbTckRMxwdcIgDqS0QPq6tGH+v6in+ql2kRtGf6DMeLmpU+O+h3wOitqPKd6dwaTTzvJ9DPr0YZl1oESfgp9YmA8eMVc0VH5f6S0l6mdQZ+2AW5ZMqP8nH/rkcZl0pkYzZ03RH8K//cyM8+x79unyjZTyolmtZJXNo1JvFH6aw9t4mmBVf1rmgS24PHB6X+k1gWyax93f8auyV/86TNVmfWOl31h0UP3/gfuw5pVgTadB9ST0SBK3whqjykdZ0gF21YqunbAFDPFy1WzPQ9jTSrk5CNW5OHMqwzUARuaisVSBfhX7dPBJrqOxFmdQrS6XtykIZ9MfUSfjoWFfvSvnHo8mg2BCX9H160/2RrAHRmcCPxohalTeftRpcfuAEA1TzVb4gCww4YRuERhqWavgoA2bhNRxSBn3viX7PP5AoBEDtnXyZ+OhYFPhtOLGsJ9wyAdG42XhQp3RecxzTpPKmlW4ADOQCMUmKYH9yCC2VaKnF2AMgCN5bJx20ci3+tPpdrBADZOwD7MlDlzeGmAeBzAy/aQ/qcwN93ZvKWAOM3IcuZ8CAEAJR+0KDfyjFsIWgN3EGZlwqcFQCysZuagfFD9UHZv8O/Tr/IJQIANO3x07Go2Nn7LqDKm8NNuwA8vS5d+BRe3CBtBu950OSvRH0WxYMSAEY1BAb+RSGWxMj9xB0oEzsC1QEArvidAKl84ob+/88J1O8BMHtf98ZZu/+Kn45ZxQdl/wV+tld5C7htAHRkcg33RNvSfYZ0pvPSUJ+xxIMWAEapxGKmQowdQRnZXigNgLEbj8qe3zASP12XUH8HAOj/V+CnYlHb5+wfQyxrDbcNAE0GbytgHWju30W9b40HNQCMUmLYRGDec0Qz2wMVASAL3HRZHriR1IKXfa3+7wKkbsVPxaJA/z+0d1nLuG0AOMqDHgBQepHoIblYEgpMrCSa2hYcCQDFuE0toLkfo5sq/SN+Wi4nF2gBTMNPxaJi56T+j1jWGnQAOB3XDQCjVL6+jyswTGqc1Wcr9gQAuOJ3y8ZtSrszfv2T+Gm4rPo1AOakamDfHj8Vs8oOyv5d7Iup8h5lSUAHgNNx/QAwCoSAUIlJjqNMbgk7AuB0c+AGDD+sy6ufWwD5+GlYVOysNDGhHCnoAHA67hMARskxbKZCjN1AmR0F2QBQjN14Uz5u00Iyy1q5kvozAKQv7iM16Q10Ez4yLUcWOgCcjvsFAFS9SPQwvG2o8MPaUaY3xVoAKAI33gWvG5r8N1q9leWK6tcAmLPP6iK4UKD5n2tajiwPZADAh4Ra1vM3qcMFbWjTUol7BoBRzX6GacVpKOMbsRQAhum7YzcPw6tzS/VVACSLExTx0/duhP1+3KDl+ClY1OZJaY+YlLGJByoA8BWFsu9mCDzgcdtWCZ6GBlWHCbvR5qUC9w4AoxRi8XNKTHKGbAAoAjedlz23YQpe3K3l7ADYjSVok7H4pERJ4mB4vO0v7WUCcx7e/mLqx4YTsCLpnP2zicYmywMTAJp07unONL4/fsgeagsTjG4NFxSgDewoAyMAoO5PK/YTN5oLAFngRpkrTN+lUs4NgPiju7AdPviheij19dQ/4X+0KPigEMrcZHCZALiaxikx+/y+A2jTudXgyv+KXj/I4sAT+M/9m5aVoiDQGriBNrK9DJwAMEqJYY8pxFi8YXkxP6y9GfvgW9nYjR2ywE3blWM+fxT/2ICRMwIgWRx/kexW35a0de4XfwZGVhONTYats/deT3KFACiJfurhgg+8tEUfsu7KdvmU2LOQJxEYJsD4MfpUD1IpatTtCO4jwLTr1GH8u2hDkwfWoXxXkNqygGto2g00ySSSUTfZb2fUMiNP3Br5ARv/8YASbJYnYfFHUrD4X4Bxu4lGtpVkSbwsWZIQlc2xvrgHGQEjv0g0tjViZ6cqN05L+eHTickd0YGpVncacrpKokUPF0Sx9EbKY1gNbXu5F1DGtgYwfjd8NkCfyvknXr1dagvnPaMOF6YR9wMgzQpBkWoBvxYuzaUOEbWA1xjdVIbLznZzRPpB0b/F/zhglCRKeihJkhAKrv5KE/OeB0FQYWpo8sD1/+KTQL3/wA9BibbPSf0PyuRI4ENF0/cUfDopqXH9pGQ9xCUDwMiFDZyznWm8WpTRUcDNQEAAkNo9laza3uf7toYJTyBNjiJMeE71huiMcV0+U5TBosuq+UKXnO9O61clYYkTU7CEKrSRAVh8EQiDWuR7SOKPJgfEU/6AU9ILSQ/HzkltQZqdwOYX9patn5h00Wh8twgAnO6bsZwiTYaPCmV6iDbd57Imk+9wf8qc7o8PhAtqkKYHqMMEd1Rvi/KBybtR5u9BsPBoS7CvSz3xRmvQILjzLjD+EbSJe3EXhEBusnhHC+I9A7DFkCROJDWP3x7BNQKlL6au2D5nnwxlesi22ak31k9OzgFXfR3R/O4SAAZOrfVWNO8c1WOjD00GVwFeo3RS25rW4Fv/vjVUOAW+4j8iJf0S0cMt4YIY0/EBOJdAtUyYq5pvaOajDY9AGSzsVIYIpfIgUf8Pwjzggjvugqv6hhRxQgfKyJYAJr8DysKdgO+PD4A+fjPsPsD5+fghSCmIE/SHV4a9OTHaxi5V4ozMR0FXYEPPuQCprRumpeSun5TUjjK+EbcJACPlMazLrancYtDcj9ftZz2OV0FaoIk+Hhi4Epq3NVxwsTWUb3NCK0J5ni1hguzWFYIC9QJRPcrgZFGGCO6oQ4Rv6aMHDbh+tKsLGhSY951kcUKj0bx2A7oMyVhCGeDzdD/p3/BDkBY0/txhi88FDV+sD/JcVBI0/E1Su2CbCi4bLp2T9u2mGXvywBX/DsrwRNwuACDHo1hX8aKkpQwXMKBpjVfuHoQJjigjhaSmXBoFWgMPoQxtP4Iy9Txhv61796ApCUsIBGa1c0DPDFj8Cbx60prnsZgdNGzxdwbj90QHyH7Jc5Fh0hpZrZ+65wmU0c0x4AMAv60Xow7ltyPNjwOa8p2gHy9tXuFHKr2pD4B7KINFRxTzeH2+8u2DomQ/6RBg/DTQdLd/Wy9z2BAAc1ivPT532CLp3OGLuwjGJ7CoDQREzOser5O6nU0HAK5fJ/bwa1GGNwcIglvqMOESa01yZwUARB0ibFMFCzc0BHGsPgdOi5wOi5IeBs30T6jb1gsBiQBYIlry0Nzhi0KBsZVow6N52XNx7dwRby7EqzErOgCADFN7bbl1hwCEQIk6TBSAV9lLzgwAI7KX+aVVQ73n4oekZacqXkiZWTQtuRRpWiqxEgCvDFs882XPRVdRBifNsEU5r3i+ycOr7CU6AIComMUHgSP8eJW91BcB0DSHV3PWw0tfOdTr1DlPphg/NC2SOvPCLmHljOS8yhkp+uJpyY4P9FnDQgC8PGwxF2loO5g7bPFNvNpeogMAyFp/nyyuEgCGEPDw6q70YKZVeTg2w/FBUMkLSf84MyNZenZ6chc0vysEALxqo8xsDy8PX1yPV9tLdAAADcQA+BVG61kPZsxlxsCcVuyIqoKy/3BmRlIoML/KaHw6ACxDB4AFXDMA7gFaBFcqh3o7bfajuwn2889MT75GNL4ROgDQ0AFgAVcOACOVHoyfK4d5cfHTeuB0dnoKu3J6yg8o05tCBwAaOgAs4A4BADGOD1QMHz4gHztG6fyc/Y8T+/mWoAMADR0AFnCXADBSNdRLceZZr6gqDoeSZ81dUSWipIdgP//sjBQlyujmoAMADR0AFnC3ALjPUMYlwIB77LhyRtJEcNU/hzK4NegAQEMHgAXcNgB+5WjFENYo/JTdVpUvJLHOTE/+FmVsstABgIYOAAsMgADQn32W0Qleky4+5UXpSjR9oarJKY8Z+vkzdmtRprYFOgDQ0AFggQERADiVHgzZ2We9Q3MG2bYGQn8I9vOBaZdUTk9pIhrZXugAQDMgA6AljD8RLs2FMjVZWsOFl1UrzS/f5W4BcJ9nmRfOeHg5bZUaRwX7+WenJ59FmdgR+jsAjA8BAWQoU5MFrhkAmIRX20t0AOCCBgUhENoazlehDG6WMGErfHxYt8LyTDu3DYBfOXrWg+kyK/lWTEv2OjMj5QjKvFTQ3wFg1PyhSx8FBt4w13OxBmVwCyiChi+KgqsG4VUhRQcAQeqVon/A5/zV4fwupOFx4Oq/cBXglvfFpLar7osAuDzWJwdcra8gzEsJlc96dVR6MDdeZjBsXsGGKlXOSHwU9vOBSTuJpqWS43P3nUoJSLiINC5VkAgAo+YNe8sLmDqbYPJevDx8Uffc4YvTXhz+Lqk5HnQAmFFrmFDYGsY/bsb8RapwoU3bVTszABrn8K/ne3md/tmTqT/mMUJ7yoN5omooU4EyMSUM5ebVMcPf1g8K6rPdfHICo39fzI97v8w3rvTMtKQzKNNSQcmsPTe+eeNA8eHFB/RH3jzQnTV7bwFcsw9pYEexIQCMwpcCq0SZH5ALxw7wj5LSgA+AolWshqZw/nF1mPBjXTj2Z7wKUiLu/gNe60EXYSH8Of4RUlKHiP4BjBqvChbmqoNFSqKB7UURJFCV8tk//OzB7IDmNyXHkykvGeqVV+Xh1YU0sT0MZd6+4jm7oJYZqYfUMSLO13lFOH18oEQYN76YL60sEcTpjZQGxBdVTkuuR5nYHspnpLQdW5BWcHhxlgaa35SDbxxQ7Ht+1/FkcXwX0sh2kCRJuP4x99O85ew1obC/j39VUgoEYRg04q0loFvQaDC+56I6fPEPm/5fRnI2/TNq5La9MWMScj6dmNSKMjwRNwoAr84bK7l5rWGCFpMrd509BobLhIEWwevwFf8RKd276gtD1fNECqNpQQDIlSHCPGWIQGtqZltQhoh0lwNH5v3i6XWTaHwiuZ4jLlQO9TqNNDRJQIjcveA5tqCWEdpuNH8PRkQcvcGI4OBfmzIVC6UjSgTSbFPjm1IsiGsrH78z98yMlA6UqclQMSNZd/yV/acPLTrQRDQ+ka9eTb+2e0yiQwuFJGPxrZtFm3OXcz7sWM5eq4csY6+9tJy12uaJWHOHLH4saNiiRXOHzLXpwrZElPRQFHtb6GpOrBKgh6z1ib2zLnBn/voJyd0o4xtxiwA4H8mpAH14C0t78U/Z2oS3R8CofspgQTvKxOoQwUV1MOhKIN6zxM0Z3PO5IxhnUGa3ROFQRhEIglqUwS1R5ckruT7i3Xqk8U2oGxHZWcuIlFZ7hDr8H6SCu/mRYoE0ppQnbUcZvxe+cTfOTEkuQhncEkUv7jn/zZuZVSizW+KLl/YVpUjib6IMboFuqe/2glDOR41G4xNZxlpzdBn7I6fu/7CavW0iMHyV0fhE1nKl5z8Zv6sSZX6ISwdA8SpOtXwlvxht+p6A5ny3LYN49koVIpgJrvZdKDNDYAioQ4Q1qPdMaX5ZIDvF9c4DZu4imtsG7p4e6pVbaVgjAG14I1XPsi9Wj1hQiTK7JWpGRMpqGCtD9aCZiv8KSEs/SP+bEv6OoGJeXA3S6FYok8SXnpmWYvYRXyOlM3c3/LAw8+ShxVk6lMHJcPCNrLa0KSm5ZNYM3CneUf7BqOiLKNP3wntt53LWGmkoL5pSo61ib2eCq/4RlOmJrOFs033kF1e4flLSTbcIgMIPvFtvruQWAFNrUGa3RGu4EHQRrN/Gc0Sg7/8+ytRGQEuhA3QVjqmDBSrie4pggfbcmJE//ewxohlhaLv4xYNxq8KDUVDp4aXrbX6m/LLntBM3mBFdKIOTZkTkhTrmqun4r8CqSoVSETDxCaKpbaWYL+0sD0zMOzM9uYVofNBV6MwJTss7siizBWVqe/jfq+k1ewN3FqKMD/r59ev4nxcAY+t6Gd0KoDUgg+MDQQ4OtEaA1lQUOzZmNWdbB8rslgDl2mL8E44C47e4ZAAcj2LprqwaVQD6+U0oc9sCnMgDB/zwQ1Au1TxhJNHcvRHI8PEBQ4uhdgqvLGc44xLKxFRQ4MksBd2CSoPxn2V0nh/mn1fDCFUjDW0vIyKO1oz4wGyztli47aliflwS6M93owxtL6XCuDsVU5IKzoA+PjR/4cupFd8szqpFmZgKvgzaV5oSkHAVGj9Zkmjo56/grG1HmdsmWGvOg1bBFPzXZYP0v4lixS5czY69jTK3Lazx2X5rXeAuuEmoziUCQJ8kerhmCztHGS64iDKzI4BWxPfqUIFTJryAq/yq3qbvjTJYeKGQzcxBmdYJdJUO8/mxmvFODdLAFFDHiNDUMCK3mI4PXGZI/wj6+VGl/B1qlIGpokySUH7kzcxylGkpZ1GWZtdzCd+GcT6+gzSzI7DWfvmOd5Qn/uuzqA9YWzFg/NMoMzvCh8K4M9F27GLkFLXv4j2vDhOUoUzsKGq46Ue4YLtytc+j+OF6yHBbL1iYaM/OPMDgK+EoPtH0RH72YNYhzOoUTg8bW4EyLtXUMCMaaxgR71Zwt7wAmupXUIZ1Bo709W0ldsp22ORHm9hBQLdAA8cHVjCikSZcy9r2FGi2J0VxYrtRBnYE0JqohS0K/FCuIbgZB7ytB8x6B2VkRwFdCxmcHgw6PoYBLXg8YM6F4ArddM+oAhkIA5bhZGyQcr5wibVdgQdiABgpH7X5OMqozmKgBICRZey19aBFsMS4Kajxtl4UZ5sKZV6HYMW2wjGEaI9oUjsN9YsUoby/wys2vHKjjOwo6nDhGdViwQLlPGEl0ajqYOH1lmDb7ySogkF9FuYC0AFAHQMtAO7jvfZUJOvzhcCgV5DmdQDYigD17oOtCvy/rOtLtZLrBboF36JM7CiqN4S5KKNC4K282wtsmyQEBcq9eO8OQO866QCgjgEbAIBIzqZ8lIEdIYq1reiDkVJ//L+p+0kVJpgJmu9XUUa2F0sBgPOzbq5tU42hlCHCKWq4tx+hPjoAqKNfAwDe12ev/RBO8unxc4qgNgC21QPudy3cWnY/3msGEgEAZ/f9pH890Oa+kvwVPk8dLLhmWhcdANTRXwEA7+UvY6+ZgP8zD3qP/eHE5aw1VaYGdhQqAgA09TVRnG3SVd4b/4qf6sBRa5jwqZZwQRKc+YcyNlnIBABEGSw8CMMHPzxpKedij4GWwI/GeugAoI7+CABg/NKlzNXD8X/e+4IP/ixnrQ0DLQM50cz24GgAwNmBH3rFDcNPb+AK7gAMjFxINDZZyAbAPYRf2hMC+qCg3ymDRZvgbUI6AKijzwOAtTYtfEi4xe5gOCf6MRASGwy39hDGJovdAcDadv6DkbF2TDByY8GnAA23DcP4t1Emt4RtAQBbAqIj9nQHoJTzBPN+HsaoRpnVGdABQBmKL17d9yL+z0hKS0d+xAaB8T3K3GSwOQDYsTJ4yzBoUHafreXgcoKP9cL5/+pwYQfK7ChsDQAI6A7kNi3yt6tflePhxQLmLCOa1RnQAeA4hxZlFf3v7QMj8H8+m/S6R/SfgJlLiOYmA+kAYG3rhJOEVnptcbvVnp0m1ft8ZkuY4AjK8ETsCQAIaAkUql7zfRw/pE36jsH4I+gKbPjFk9mNMi5V0AFgP7DuQ4sOSLODsu3aXWmpz+pHl7PW5KHMTQYyARDFiT36AXubUx8zdmuRWRXY3gCAqEOEV1UhfCZ+OJt1dBhz4i+eI+pR5qUCOgDsph7UbXbFXWuCc/sND/sgjE0WywGw7fLqkdsH3I5PTtH924ZhAiXVAQBRhghuK+cLRfjhbFY+g/EEaA2kowzsKHQA2Ibhqr84K+2HxV88hv/z2Kzl3h/5LGOtrUOZ2hZQARDF2qYAV/2oFQyp0x5xH7BSLfd9HLUqsKMBADGsDjRv9Gv4oewSMOy4nz0Z54kmdgQ6AGxgUdaVQ29ljcf/OezSMs7qqcC8aqKZ7cE0AAzTdzmxaWtGbXfqIjcPhNoihKLWcEEBlQEAMTwJGCzcAB8swg9ls0pEooeOeTKiQIug12Kg9kAHgHUOLT7QfmhR1r+/W/GdI1fV3yxnrY0Cxu0iGtlejAEAjJ+7lhPLx49DiwoZbxuCbsEl5eui7359CtBx4G1C5Xz048Zk9dPw4cxjHswvjnkydShjkwEuI17GnvFjLXPVBZRZqabaK6quhLft+1K+1KnrABj5YfSOU1+/lnESZWoyHFl0oBs29w8vyR6K/9rtElziazl7zWGUie1lBfuj+g/Ym7NWc7Y7bSEbWkDwQR9g2hhFiLAB3toDV3EN0dD2IagFSPDD2K2c4cNHgdZANsrglsgbNqqs1n/1ZfmErXrZc1u7b/uuK6hhRjahjOsoN7xW3a30+byglBd3FxqzlB/XXMyPyyvlSbuIpqWCfKH0xj5xfJFxea60iSnlB9/MvIIyuXmyjh5clCXAf812672RUbxlrDVXUSa2h2XsD++u5Kw/GsXesjZ8yFabnz+hZaeaX/UbogwRpsFHgFXBogq0qW0Dhol6nnCprUuVo/TLUK8JPw8dYdggxBI5Hl41l3wX5UDjE2l+frPiFnftMbiKD8rI9nCZFV0ETFlHNCkEhMB54pr/jlAkiGv90m9Hboo4ocNofiO7JQna/7yYmn940QEV2vD3AM39QvCZyfiv1SGtEa9/abn3mjaUke0hlLWuYBV7y64P2Zs98EPQ6muBPrwYNOFPwseAVSHCOpSxyQDHA5QzRucpMEm9XIz90Ixhz+CHcEhHh3uNwVsEPVYQ/sWT2VYyckqufPymdpT5TWkeu/FaDWtVEcrQZLnGXH29nLetBGVUU4oFUl0JP64QBEE96n0ywDq+8Y0v2I3FNxCNT2T3mETZl8FpeeAK39XD/IuyCg4vzpyJ/xodUuzs1L/HztqbBF716ybElS7nrL2MMjRZVrA/vhbJ3pTl1o/pDiTBKzYw8cIW0BqA3QJ1sKiVaHBLKF8cfV7pLzkDzK83IheLFXKx/wL8EA4rZ8QIxjEPhvSYJ/Nu/ghB0e2x/7qJMrslGsSfFNUwI2xbL9BrlfKMz4bcYsEODcqs5gCtgbZiwfZc0vsB4IDm/oU94h1VKLNbYt/EpHMH38iqAH38/UcW/WcU/mtzWLGz907ZNjO1DprfCPh750eSzfnL2GubUQY3i/eHikj2Z4dXjdz8Gvhf53ArkRbFMo4PAKqVIYICU5OjUAeJ5Ipx2Ek5Juk2NX8PxFiWEsPsvsdM1FXugsGyCVtXKcZvvYAyuXU2373F/9cPNYwIiysG1zBX6S5wPikApmwkmtQWYEugVLAD1oN830iRME6e5ZeQZ+eWXZcAMXtHJzyL/5ocVuKMzEdjZ6WmmBqfyOYZu5siRZ/8YO0hoGXsNd3h7E8LPuBsih6Qj+kONMnmjX4Wjg+oQgRlihDRFaLxQSuhUznZL0+JSVRI0xOQiyUyQChoaVC6OIPy+S0i+fitSYoJW9Vos5tH9tzG2/XsNTmgRdBNNP9V77XnS/mxZ1FGtZdSQVxZsSDuMvHnxbw47UHf+BMpWIKSYGorxLclS+L3JfsnjoWbkOC/Ekq0fVZq0LbZqXdQpkexYcquq6GjPj6NMn8YO6b8A/bWlCjvWFKrANNyId0bHxAUwPX9jRt9qGf5liokkssoo1sDBMZxGYb54NVTpib/jX8FrYL5wNjZtoZBc8BnZTXeq85A419nfiCv8Nl8gup1/Y2UArODFkF+CT9OBv/+szCufI8k4TLa4AiweDkwfXYylrBwt/9uyq+k22fsZQLj/4QyORnWPb/jpHF8AN7Wi+BsTI/ibB+DV0/LHQUn+ajnixargkXnVOPEx1DGtgXQXegEbFWOGePQvAFzqg6M/pNswuYZ8vFbkuUTttxBmZ4IvG14XbD+2766n1/Cl8oO+CX8hDQ5AWD4c8mShB27JfETou3YooyM8Ob+5thZezUoY9vCtll7O1aLNh1Yxdn2Kt3PH0CCjwIr/LF1wLwalLFtRe6HyRUY9kEtZvvag7ZIOWHbcGDyhbCrIHt+63Wi+Y1c9489iTSrk9iLxZcgDY/FXwMkwas8lX16lJKWJD20bc6+JdtmpTaizGwrcHBw2+y90g1BSf+HH4LWQJNKLGaCpvwhlKntAdRVB4JgMVxBCD+EU6UIjPWUjd8aBFgH+Eo2YcsVEAzdfR0A+7AdRfeu7vHZwPgxKVjCzCRRUp883x4dHf3brbP3zgdmvY4ysj2AEDmyZc5+L/wQtAa6FH6S8cC8PW79OQJoWVyHA4XObhGgVP9C0sPXA7bySoQ7XigVSpfA7byLBXEp4PUbQEUpT3obvMrJ3AqEt/3gZ8Gf60Ad54p5cd/DukCz/1/F/O2vlwjjxp/m7vD6rh+eboPGNwzwzdx7HmViu5i19xIw/wz8ELQeJMFRfTmGLZSLsQaUqe3BUJdYEqMIDOz/jRvNCO75X+mT+OgpH+mQEtH2ofDP8Gf42y6n1MDUP22dtedNYNgrvQxsJ6D1IAf9/VDYjcAPQ+tBFTQruHpvgwN8KFPbx/gLoIn+uWLS5oG/yquTtMtfOiIFi9+QFJBI3RV/Zmo3uOqnbX4xbTB+GFq07gmOD4AgyEYb2jaUkkk1cHAO9s/l47cchf12vZNGwQeS4EYYSVjiRMPtQnxS0a6ARNL39C0Brvg5W1/cw8MPRYsWWlSMDxgDwBTZ+C3wZx81TtnmPnu89ZH2jEkcniKJ/xgYv9b0rgIlATArtTZ21j7X2k2XlmvL0fEBVAAYga0CxfgtBaBlENocuGEIfsgHTrsl8R5JkoTQZElCATC+jmh8I/YGwLbZqW3gNSY6MNV1d9Ol5doyjA9g2Aa5n7gDZXRzWAoAIooJW8/JJmyNaZywZcDfhtop3slMwRLWAGOXEo1uDlsDYNvsvTpg/uztL+x3aOEQWrTuS+Xr62XL+IAtAWAK6CZUysZvjWuesPVl9VTpE/jh3VapvvH/3C1JDIKTg4CZrxPNTQYbA6BYOnsv/ZguLedIIZFMUIollSjTm2JvAJgim7BFZ2gdjN+aCAh29e4CnOqbIk5gA7O/Cq7yyaBpfwVlaFshEwDgil8PZwXCuQL46dCi5RzpAwN/D0JgCegWNKLMD6EiAJCM36oE3YUSQJphDGHCtoktkzb3+S2tTFHSP+D8/hQsPhwYfm+KJL4EvLajDOwoFgNg1l4NnL67cRb1DxfRomVR8IEgw/gA4vkCpwWAGW4ExP4IZ/0VC+LAa1wG+PN28PpRCS/u7RL+jqBSgXRqET9uYhFf6l8qlIqKuNtHFY3eNhxymhc/Ev6smBcXAD8DXmfAMqDsG6CeD0v4cXElfOl/QR0Fpfy4a3AtwX1mngVwBuYCAE7f3fbSnl67/tKi1aeC4wMKMXakPwPgumRbIXFarzPpzwC4NxV474O1my4t15cSwyYqxdhZOgCo5X4AzEyVwem72UEP8G66tFxbepHoIblY8n7z6Jnfyp7bVIwyK9U0Pr9VcVYkPQZX9UWZlWq+GfVZ2Vbeuh+SJfEqlGGpBBxDE++/84ets1LXgxBw2ecraNHqoVpO+GO1jEjpHe5HpbLntxjW+6ea5glbtVex7SdAn1wFjQn66zrD+n18aQPRtFSQN2pL/afDVuas9FzaHeG5TP/B8BUyqXCTvesAWmUXlnByk3/83vWSRMoWCaVFq09VzfyAXcOM+OHO6Bg4868RZWR7qBmzraKML61FGRXQas+KvuY4xZe27vCKOhrhsbQFGp/IWsbK87v8pKdRJraHZCzh6jZJ4lefSRLp3XRpDQzVMCJm1nlHnr8j+TRXNn5LB8rUZGh8buv1cqG0FGVUIsV86Q3QGrB7bKBIIO3O5MTkRXgsq0MZn8gnrLVwkZBec/nJkixJkMVJEg+vD4iPiObYt8c/LVouq9oh4X++wYiIqmdFXZUHbjyNMrg5mp7fKj/nu73Anu274Iq+4PUS8eeW+Nbn85LVw5ZXoIxuiUjP5Xc38D45lize0YIyOZr4zgRxwtHPsIQt68e4/+xHWrQsqpYZ/kwtMzKt3uejc9bGB0BrodO0n28vcEXfIn5cTjFP2ox630ged9vNdSPCC4CZdURz20LUiPdvx43ekgMM3t3b8L9i6OdL4vetw3ZQvtoyLVourVrGqsBar4jyhtExp2XjNzcRzQ/7+SV89D5+9lIsiFMAeu0UZK2fby8feUWe2yWWVhKNnySJP7/FP+HLTyWJ9G66tB5c6QdF/7aGGbkQtAhq4PiAYsLW9lvjtlWDfj5lm3SikV4Hr0W/9vOX30QZmApAt0C3nvNxHugW3ATmb46TJHz/qX/iKunUvl9XkBYtlxS8bVjDiIi/zokuBFdop2zsgWIjM+InlGmdQeTw5Yr1WOLm6MC+WT2YFi230znehpHg6nwUZVZn8Onw8DyUWalmpefSnHDP9+jluGjRIiPDQzl9MLPP6QEwdFltuOdSejkuWrRsVYko6aES/o7QEr5UiTIvFTgrAFZ6LmuL8FgaE+3xOr0cFy1ajui0747HiwVSqT1zAKzhhADQRXgsy44avoRejosWLSpVLNwhNOzOizCyvVAaAB5LiyOHvheAny4tWrScoVKBdGaxIK4aZWhboSgAbkV4Ll0C1/THT5EWLVrOVCG29c+gWxAFaEEZmyyOBMDKocs0Kz2WSlcwVvwNPy1atGj1pcp5W58p4cWlwUeBUQa3ht0B4LH0SNjQpfRyXLRouYKK+Nt9i+148s/2AFh6Idxj2VT8sLRo0XIV6Qfpf1PMj1sItwNHmR2FDQEgW+m5NBT08+n9DWnRcmXBrb5BlyCGzIIg1gIA9PG1Kz2WJa30WkJP36VFy50E9/6H4wMo4xuxHABLj0UMf5dejosWLXdWMU/6fDEv7gzpAPBYemXlsKX0Y7q0aA0UwceO4fgA6Br0WDDUNABWer7bCqfvrmCsoB/TpUVrIKrSJ/HREn7cBuOCIHgA6EBfPy3SY9k/8Y/RokVrIKuML+XkCaX7Y7nrEiKGLhXhP6b1QGnQoP8HTHSMP5fo0NIAAAAASUVORK5CYII=;fontColor=#4277bb;" vertex="1" parent="CMM1cMtTfkDz5n-KOBCl-220">
          <mxGeometry x="46.82164473684211" y="44.38" width="55.75" height="55.75" as="geometry" />
        </mxCell>
        <mxCell id="CMM1cMtTfkDz5n-KOBCl-233" style="edgeStyle=orthogonalEdgeStyle;rounded=0;orthogonalLoop=1;jettySize=auto;html=1;entryX=0;entryY=0.5;entryDx=0;entryDy=0;textShadow=1;strokeWidth=2;strokeColor=#4277bb;exitX=0.5;exitY=0;exitDx=0;exitDy=0;" edge="1" parent="144" source="126" target="CMM1cMtTfkDz5n-KOBCl-210">
          <mxGeometry relative="1" as="geometry" />
        </mxCell>
        <mxCell id="126" value="" style="swimlane;shadow=0;labelBackgroundColor=#007FFF;strokeColor=#4277BB;fillColor=none;gradientColor=none;fontColor=#000000;align=right;collapsible=0;startSize=0;strokeWidth=3;" parent="144" vertex="1">
          <mxGeometry x="122.77302631578948" y="233" width="155.30263157894737" height="145" as="geometry" />
        </mxCell>
        <mxCell id="CMM1cMtTfkDz5n-KOBCl-202" value="&lt;font color=&quot;#4277bb&quot;&gt;REACT APP&lt;/font&gt;" style="shape=image;html=1;verticalAlign=top;verticalLabelPosition=bottom;labelBackgroundColor=#ffffff;imageAspect=0;aspect=fixed;image=https://cdn0.iconfinder.com/data/icons/long-shadow-web-icons/512/nodejs-128.png" vertex="1" parent="144">
          <mxGeometry x="164.7467105263158" y="271.5" width="68" height="68" as="geometry" />
        </mxCell>
        <mxCell id="CMM1cMtTfkDz5n-KOBCl-200" value="" style="image;sketch=0;aspect=fixed;html=1;points=[];align=center;fontSize=12;image=img/lib/mscae/Docker.svg;" vertex="1" parent="144">
          <mxGeometry x="215.11513157894737" y="215.5" width="52.44" height="43" as="geometry" />
        </mxCell>
        <mxCell id="CMM1cMtTfkDz5n-KOBCl-213" value="&lt;font color=&quot;#4277bb&quot;&gt;FAST API&lt;br&gt;APPLICATION&lt;/font&gt;" style="shape=image;html=1;verticalAlign=top;verticalLabelPosition=bottom;labelBackgroundColor=#ffffff;imageAspect=0;aspect=fixed;image=https://cdn4.iconfinder.com/data/icons/scripting-and-programming-languages/512/660277-Python_logo-128.png;clipPath=inset(35.16% 0% 29.7% 0%);" vertex="1" parent="144">
          <mxGeometry x="346.02055921052636" y="144.25" width="100.29" height="35.25" as="geometry" />
        </mxCell>
        <mxCell id="CMM1cMtTfkDz5n-KOBCl-232" style="edgeStyle=orthogonalEdgeStyle;rounded=0;orthogonalLoop=1;jettySize=auto;html=1;exitX=1;exitY=0.5;exitDx=0;exitDy=0;entryX=0;entryY=0.5;entryDx=0;entryDy=0;strokeWidth=2;strokeColor=#4277bb;" edge="1" parent="144" source="CMM1cMtTfkDz5n-KOBCl-210" target="CMM1cMtTfkDz5n-KOBCl-228">
          <mxGeometry relative="1" as="geometry" />
        </mxCell>
        <mxCell id="CMM1cMtTfkDz5n-KOBCl-210" value="" style="swimlane;shadow=0;labelBackgroundColor=#007FFF;strokeColor=#4277BB;fillColor=none;gradientColor=none;fontColor=#000000;align=right;collapsible=0;startSize=0;strokeWidth=3;" vertex="1" parent="144">
          <mxGeometry x="315.8519736842105" y="100" width="155.30263157894737" height="132.5" as="geometry" />
        </mxCell>
        <mxCell id="CMM1cMtTfkDz5n-KOBCl-212" value="" style="image;sketch=0;aspect=fixed;html=1;points=[];align=center;fontSize=12;image=img/lib/mscae/Docker.svg;" vertex="1" parent="CMM1cMtTfkDz5n-KOBCl-210">
          <mxGeometry x="80.3796052631579" y="-16" width="52.44" height="43" as="geometry" />
        </mxCell>
        <mxCell id="CMM1cMtTfkDz5n-KOBCl-228" value="" style="swimlane;shadow=0;labelBackgroundColor=#007FFF;strokeColor=#4277BB;fillColor=none;gradientColor=none;fontColor=#000000;align=right;collapsible=0;startSize=0;strokeWidth=3;" vertex="1" parent="144">
          <mxGeometry x="556.1513157894738" y="99.63" width="138.51315789473685" height="132.5" as="geometry" />
        </mxCell>
        <mxCell id="CMM1cMtTfkDz5n-KOBCl-229" value="" style="image;sketch=0;aspect=fixed;html=1;points=[];align=center;fontSize=12;image=img/lib/mscae/Docker.svg;" vertex="1" parent="CMM1cMtTfkDz5n-KOBCl-228">
          <mxGeometry x="42.60328947368421" y="-16" width="52.44" height="43" as="geometry" />
        </mxCell>
        <mxCell id="CMM1cMtTfkDz5n-KOBCl-231" value="" style="image;aspect=fixed;html=1;points=[];align=center;fontSize=12;image=img/lib/azure2/databases/Azure_Database_PostgreSQL_Server.svg;" vertex="1" parent="CMM1cMtTfkDz5n-KOBCl-228">
          <mxGeometry x="41.973684210526315" y="38.62" width="53.54" height="71.38" as="geometry" />
        </mxCell>
        <mxCell id="CMM1cMtTfkDz5n-KOBCl-234" value="" style="swimlane;shadow=0;labelBackgroundColor=#007FFF;strokeColor=#4277BB;fillColor=none;gradientColor=none;fontColor=#000000;align=right;collapsible=0;startSize=0;strokeWidth=3;" vertex="1" parent="144">
          <mxGeometry x="776.5131578947369" y="99.63" width="169.9934210526316" height="132.5" as="geometry" />
        </mxCell>
        <mxCell id="CMM1cMtTfkDz5n-KOBCl-235" value="" style="image;sketch=0;aspect=fixed;html=1;points=[];align=center;fontSize=12;image=img/lib/mscae/Docker.svg;" vertex="1" parent="CMM1cMtTfkDz5n-KOBCl-234">
          <mxGeometry x="57.482960526315786" y="-16" width="52.44" height="43" as="geometry" />
        </mxCell>
        <mxCell id="CMM1cMtTfkDz5n-KOBCl-237" value="" style="shape=image;imageAspect=0;aspect=fixed;verticalLabelPosition=bottom;verticalAlign=top;image=data:image/png,iVBORw0KGgoAAAANSUhEUgAAAOEAAADhCAMAAAAJbSJIAAANdnpUWHRSYXcgcHJvZmlsZSB0eXBlIGV4aWYAAHja7Zlrkhs5DoT/8xR7BJIgQPI4fEbsDfb4+6Ekd9s9nt3xxv6ZCEtulVQq8YEEMhPlcP71zxv+wUN6K6FobdbNIo/SS8+DNy2+Hq9jiuV5fR7nfeTzD+fDxxeZU8JRXh/tvK8fnNfPH9TyPj9/PB/qeo/T3gN9Dvw8xGf29/u9yPdAkl/n0/tz6O8fDPtuO++/vN7Dvgf/+rlUgrGV8SSHfCRJfF7zaybxvyzDz/OaJXFhEuW9vM/bH+MXPkL3kwB+vPsSv/htZfIZjtdA37ZlX+L0Pp/0y3n5mCb/sKKUP2bO36+otnji94/v4nfvbvee1+5GsUC47L2pb1t53nHhJJzy/Mx4Vv6U9/V5dp4tjrhAbbPVGeLkQ0+ZyN5U0k4j3XSe40qLJZZ8cuWY8yLufq5JzT0vcQiKP9PNNUiXLQ00FsgJp/PHWtIzb/f5mKwx805cmRODpQfZ757h64n/9fnDQPd6mqcU20esWFf2/GIZjpy/chWApPuOqT7xTeF1iF8fDqyAoD5hbmxwxPkaYmr6zC15cJaogUtLfNVLqvs9ACFibmUxSUAgGomdLMWac02JODbwGaw8S8kTBJIGzZtV5iJigNOyz81vanquzZpfp6EXgFAxqUDTZQBWKVqMemuk0AgqWlTVtGrTrsPEiqmZVXOeGlVqqVqt1tpqr6NJK02btdpa62303AUa09Ct195672Mw6SiDsQbXD07MPGWWqdNmnW32ORbps8rSZauutvoaO2/ZUEDYtutuu+9x0iGVTjl67NTTTj/jkmtXbrl67dbbbr/jA7U3qj+i9hW5/4xaeqOWH6D8uvqJGqdr/TZEcjpRxwzEckkgXh0BEjo7ZrGlUrIj55jFniWIaGaV6uDs5IiBYDkp600f2H0i96e4BaL7q7jlnyEXHLr/B3LBofsOuT/i9hPU9njoVh6AvAqJKQwplJ//bOQ2jsq60d8hT790DL/6g98D/R7o7zBQDsWtozuvXShRCupQ26q57kUJltO0jH5dsVXaqiebrkEh96mxCww2Zrv4gtB0l1z2vvDcqjOKQoRWt4ncsbZMqhlGGn05gaR059I8KgWtec2ax0z3nH7DMdkL9tMFkbRysRLHRmtUfJ54jSt5lTwQs3HGvqYb4qh5Kco35xaKvPBvhDEZqPS0hmphvyasao8+bbWbS0u31jVTj+WUO3eZFTfWSjoHXytXx4l9a98wpB3FxWQ5G+PT1eLMZ+3cTzKDemZfureUsTpb2JOvLNmW3rUNufssuDVKGBvWKkZMzHqDq7AsLHErG5FIUMvIt7M46HFGyBj7A41exdFKzxP2ZLvEqOudtaPzRZPuXAnV8x40eek9nZGh4ll2fF3E/h/UZcXVR7XZnvPh44sR/+sRPkc/0lSZKXVAdEPS9swpj7D7ibB8VXwPc/Z0dx45RUBGwNrQs4TYYdUAS9q1tSspUcs8Y6EJ1S2iphUIOUmz9NzJYusYAy+4jhGVTF4UFPayDkU2elnR3BuOuob1uBEQwiRQfb3BSkeJ57mHP5QRJbtnrXZOLKVVV1ESzgbjjNpPu2mikcBJPEccDeNa2hILp8ckTyDVGOdMiiOq7YZkWW1aUx0XxTt62xqXGCNoyD/JhRiTQRdLjMMNa5PUeEaS4pw9WL8bsHJma0frotxoZe6tJck9FcmcQFTXHou0JYqsS4RcCqNiB6jWfDp/iHfFN1NwBz0EdqTzXMIgC6+AotPwHG8H3HJTbD4ZnZZpD6RB7mR6PckNt415QJXaIGnTwXGfVfeZ80bFuhOYSQ1UKrWNOzZkUPVsOxZqpXrwj8ycthIAZdGZpXfiKxRhq5JsLfJibHf8Xsp4iWTtFF7SWrWnfQPpfA8eg524u0DaY54VnNJ0AwubLC9BuR2MM+ZA9LRtkIQZ4B/Je3oGBjk2SUFYo1Py6lymdRpwDezPpTS2zj3Jrt6txAktqQ1rmw3MTgYKLJJpamwyRVwNmsF1wDheb8yUDoWLPTOQkrIr3txOpvbWyZNiaXoK3gfQLnxBHuGn2rpL5nAfVX0NlWLKfcJzPdbKUG4IO+ArcwuOCd/awKMSNNI5JSfoAI8eHQo6uD+MFIy1CBWJsCbxKqUaCTogiwsvxrVooYTEg1EWAWTbBhGPhfO3laEvTOX1siB6ZFmJZ1BmlI2CO5RcKwVGaRtFv2jWTqo50dpObS1BXDkMaFwO/CtzViUu4i3I6fCe7R0pC0RiHLvDi87S7n3dRIjYGuVijlircwWZhHPDfJvHQkxQkc6Cdlno0hHkYxt1BnFUQxrOsGk7lX2sMCOn1t0sPtAQndRbooMkCycK08lH0Memk6TYSMDYdukoYQXq8YIC7SRaiMBghit2nGolRugezAZ7Ue2UkA6w9wWzKvSrQ9EH5llEO6JL8JP3pYSDPTK2qkN9Y8DMzs03V/NEJEkUvPNBcWA1VMBN78rFMNsZYkyZekJ4kSNKB6vu2pG8UgLVV6k5muzFsu2SNudGyig5rjtNUqymwa6R5CsNdoVkxtm7wLvU5Rmaj+1w6durVxTdBwshch/oe5XSMlz6iR0vPUunioerIakXqXpnontY8t4dhiy3knrkKfZgok7gAXM4wVdRvagn+RttFJKvIv1yZXg3S26Ioqy30XHKI9loH2Edy3Alc60TTaEB8rESaaoTvFk+BGKP6tEDobqFBCz8DKyMsoBqJ7O1+lLI5XeW/C0moLJ0JCHjSuA0QMtIyIL7TqxCrOEMuKLeTX90SxjsN1trYGrEKdHEIPZ13mbzTnKpk0mKfk10HQ2Luqg/v9N1h1mjCGjL8DsBwkLGMqINE3mPwmk6dAho0YxTowpig56G4NEMNRQPHncfdDZJRCGidpBU6AfSwGVQUOUu6piuq/cKoKdAHogpIwlaAGE0FKsNX2inojxpT4IjKDjDHy29jxeEimVTvAh5ikdSd5dAZmyyie+IV0Ng8XCDj3D2FaFzrI/LgjLgI7KHymYzBvV5meB2aDWJE6vHu0AdJzdPJixha1a91ODMiS60YlhAKnQEXAttIWE05NRgnjHrBg5M04XPTXMciIgdF3VtuFGkk9V15yEzasrrrQiObTb4kXqQCaQL90qUKTNiDsDLCUQjoCEWiDEZ1eliYTF+J+TpHLiWU4GfEiEpSveEAxCBv/ERaCwWlcVG+uBD0nnzjGNg75Pmu0b122OsPDI5NuSEqeXgg3G76HYfjHYz1rqlSUDXYZsDBUZpNgp/12lYDWtjQ7PQcOpmsg6IBlynV1VGrIk4mQrHtkXLS+lRmXyHdnteQ/VwXpkXVYahYBROk8CYDjuyaI5ZfwdU/C6kdDHzMvvFI06YBZtIWQEMKlrPrM7cip8QwdaRlNjnZohUzUHox9U9JTWKEKnf8TNmdjJWd8VxeD5fKGRz9Fmhq2TYimTwAfI0sQg9kAfw5p7AxIDTSWzp9IvvxkfjDw710AzRgFKEfoWpHm6fcZ6HiNHIO8P0SoJK4VlW4XdS8q2NKFQYa+D9jTzG3GXIzxVE73oR5Y2Q5cYPFqMhaQHlBpO1WCNkhhOC+jAv7kJphGgTTqUdOOV4aiWEmN0odJUy6CTYmCTYUwRb0y7WFP8C9gsfD09sWNtIcHyaXGgfpWT/AIdKYZa4GnJAYKhDeMAEqwNqXNVRLVz0gb4KstzdPt8I8UsjNxbGGVGZ69m/4qUSUooOwzRCbhbMeaZEpD1saOTJ8L6usabLtfG27TkBoVNjw4gjNWXAp86WhSYJUmYJTARZBIbGwyM+jY4sFiXaSBjSapcZOgxdCaV7DvoYUqAk9NPvGQv2xeKj/+CMZHvB+w2evEA3KkRJSR9XRxSLbXrQMFLgftpzWxlp9+R2v+nEX5EWCDE0yDl7h4SMJKx5i3sNzMB1CUXa8Zfg6caBbivujLFLNDWV+isVXoeNII8rISvs4XfC/P84SA117lwUH+aB4IAlAUYmMQEz+41Xmkm8+cSQwsuIEwzPF5M8gtYIQqOGKTJMdMe0d1KOsiKHYkGLX4359GL+1nEhwig9ZGpxTS4JAp0zwyKxM7bK7+GxP3cHSh47R2G7XVIhBvIPc+NGRsjnJEPoS5GVOeHsBhXTvvERfmZkUmZQFscyedXodjCaNii8PuhGrke6kVgF3Tw0TBT4hXZEwyFfXVi8BYK6DlFddBnJt4x9RH0ZkOaBKXA71R0JsuEwYn3Ue3n4Cy0JEORodHZuoEZ1AwY9jOo7oNsqMAkbYJZBC7ZeEaJrsTS846WxYHMNTt8h+g1tRqsUIUVGiwMwCDgVjmLmjZMz76eE5HCDsLV0JLH43UgdMAau3+9wBuabBWPcnsvo88l4GBQ1bzSinMI4A53/zwiLI9eQkbldp63hNQrx7Uh8wUOW7jNibf068ZEIl68pO69Xa343gbDTVOPgvS14XUe4wP+6H2p2/cY4oG8Y1W/e+54/x6PW+BJmoh192m70w++LjNfivKNgcVQYVoa+H5tUCKF6QHI5G9UvftfgThrWajHnJ4H9Pxw6QpSHG6+924/3E8JfuG/wl46/B/o90N92oHvhyfBv2/MLbq5Ut9gAAAGFaUNDUElDQyBwcm9maWxlAAB4nH2RPUjDQBzFX1OlUlocrCAimKE6WRAt4ihVLIKF0lZo1cHk0i9o0pC0uDgKrgUHPxarDi7Oujq4CoLgB4ijk5Oii5T4v6TQIsaD4368u/e4ewcIzQpTzZ5JQNVqRioeE7O5VdH3Cj8GEcQoohIz9UR6MQPX8XUPD1/vIjzL/dyfI6jkTQZ4ROI5phs14g3imc2aznmfOMRKkkJ8Tjxh0AWJH7kuO/zGuWizwDNDRiY1TxwiFotdLHcxKxkqcZQ4rKga5QtZhxXOW5zVSp2178lfGMhrK2mu0xxBHEtIIAkRMuooo4IaIrRqpJhI0X7MxT9s+5PkkslVBiPHAqpQIdl+8D/43a1ZmJ5ykgIxoPfFsj7GAN8u0GpY1vexZbVOAO8zcKV1/NUmMPtJeqOjhY+A/m3g4rqjyXvA5Q4w9KRLhmRLXppCoQC8n9E35YCBW8C/5vTW3sfpA5ChrpZvgINDYLxI2esu7+7r7u3fM+3+fgDMgXLLPRizowAAAmdQTFRFAAAAR3BMK1aKNFmDI1iGPk+ABlaGNVaDOFiFAFiCOFqFAFiCAFiDAFiDKFWLI1eGL1F+NVOCOFmDOFaDNFWCN1eEAFiDTWqWOluGNliFAFiEAFeDRmWQOlmGN1eDOViDN1aCLU56AFiDAFiDAFiDMVCAN1iFAFiCOVeFNlqEMFJ8AVePAVqDAFmDAlGMAVqEMlF+AFmDP2CJN1eDNlSENlWBP2CKOVmGA1iDAFiDN1eGXHmhAFmEPV6IMFB9OVeEAFmDNVWCOFiGAFmCAFqEOVeDPl+IOViET22YPV2JAFeDNVWCPl6JMFB+A1aFN1aFAFiDVHOdM1WATGuV/wAA/wAAAFiDAFiEBVqBAFiFL1B8/wAAAFuDLU16/wAA/wAA/wAA/wAA/wAA/wAA/wAARmWP/wAA/wAA/wAA/wAA/wAAnDlOCxzTN1iDJ0l2/wAA/wAAI0d0CVyB/wAA/wAA/wAATnGDJkh6AFmGQ2R3Um2VEyLAEzSuGzax/wAAEjqoAGR0/wAAAFiD/wAAo73jtsvtoLrhrMPoAFqEkK7assjrlrLbvdHxk7Dar8bqY4OwiajVqsLmnLffWnihmbXdAFaDjqzXuM7vpr7jSWiTh6bTa4ixQ2OOkq7Wu8/vXXump8Dmi6rXm7jjjK3bv9TzX3+rT26ZfZe9Z4SsbIy3tcrtpbveeJO5VXafU3OahqTPr8XngpzBoLbax9n3fZvHzN77eZfDgaDMiqPIcIuykrLfkanOlK3SxNf1Y3+om7LX0uP+c5K9hqDFjqnSjafNdI+12Oj/rMLjmrHUAFuBZIWTAGJ25PP/j5Af7gAAAAF0Uk5TAEDm2GYAAAABYktHRACIBR1IAAAACXBIWXMAAC4jAAAuIwF4pT92AAAAB3RJTUUH5goVDSAR1lJ6MAAACYpJREFUeNrtmO9PIkkax8ndJQ6GXLw9J8vQzmTt7Fz25jQ7uWTQZPAuObyNTNwXOPNix8SXvlwT9sW5d2/2DXSnu6Hl19AgjMCCNiKCID9EBAVhdO7+qauqRmccRXR2vIvk+STGop6q6vrWU/U81a1SAQAAAAAAAAAAAAAAAAAAAAAAAAAAAAAAAAAAAAAAAAAAAAAAAAAAAAAAAAAAAAAAAAAAAAAAAAAAADfFixcvel9hj4t80fsSe3anvi+qJ514VlMPKux1gWd25e2NNBqj5gS1caSjQNXtFEh9TWneY9RooDSU5uK4chv1jWgog07zgUdHKIr67uJDeOsEGjQjugsN6rcaXS9kB6PR0PlsvvplCTC06fGkTV2bPRr8yw0KnNRoLgs/mnMSz4m9r5+YmPjmq7ELurfs9nhF320K2lSuYr7BPTp5mVVNn9N1TuHm1tHR0dbOxPnepspB4SA72G0Kre2DN8cPb0whPanubPzTW/pdhOkQaWZybw4OCm9soQs26cZ29aDWdQp7hfiB/9c3p9BA0Z1s/zF2tp3iKVTj9uq2/fl503O+UC087zpCufCmELTcoA9pmn7504U7lFaruyrszxUOGnK1Wlg7b3u6sl0Qh7pOoT8cNA+qblAh+jNibxne5Qzd5CjSjdR192E4vh0P1NBu9FxwwJDwvYn/d7KgSaR5SWFJRBb6R1FGo44kitFuCvWV6kHFUqvGC8Ez9RZTaMCS3bYfpN7ffosh02lJ23nQwdDgh4MNvvqgjSX0z2spVBjVGZA+3Xs1I90UPk1W7QlLzW7flt97+lSqeXy8l8pVVwo40DwIZrM1kyqUqhwfZ3FEMsmoJLdjUzqbbdQWSKGRfa5aTDf2jiup+yeDvbqLu+3thBfJz7VsNhVQDZgrlX99hMLzjFKX957OVqv7fapNmy3e+NtpfpP9Unxlxb5is9mTONHN5ar21PfmnGRfQfnx/iNPbgWXGsQLY6m43S5jT5er8S3zQusIGyW5vbuHgxu2OKqw8yni9fJK3J9+XBO3/fqrKhz5JQrXRMlWXlClt2wrp5l9ak+SbDzCZkvG9+dRzV2/XQoG/FISYd+aCmzYeVSySSTNTzclScSeXpC37RuhYFLCRolXPKxtSCtJfkvkk1IyjAXLNmn/G7O0Et/73VUVvv3xKhn/Yh5m7bYcUhbI2ZK59qYL7CF5+0GTPrFhE+ONAaz5KMk3c7lyosLzya1W8ygYRiUxTlKlPsdLftx3Zidu22j494OJfbw+YXJnQIK2GkOWAZnn7Y1ppHCH5/fMGxJ7lHpy5XxoNHa0kXh6CZ+zoth6gP4f8+KGovDejiiKDexPS9DOxst4+yVcIpvcQ2lDm+NF1lVB4ab/WGKlBFmRLTa5P4wLqEq0yb9SqYasPCviyNUX3kryZXwAh48lMoJlX2Q3cmKz7Bm6eixV05MX7sURpE+nvqzvYENkc/jAh3ZE1q+k9qCLZSvk6cMymjH2hCXFsmwOmwezvIvPBXBdNumSnpIbA+sSG/jOtmYVXVKjD/d8jdZhE/v3mOebJOaEkF930LrNuF3oASn99bIFThAG6owWikKVal2XXbrG+COtWTxzWfRvkIQ4dhjxM8pFbboisu40VtNg/a7yX3EVKrEkfyw0eL+IjX0tVyRSxmfqKR9hmTRZm2NXhCxYWPT7gzNjpumhJuvnWyiWBdwRv6tx/9r5kDbS6G5DYVH0KYZu2aJPtlqZctpsNqezEesG0VXzWq3NgBJxchGWhJ+BQ5c1R6YeOoxEcuTyM7cj+okzB3asfgb7S5XgGTHbRwbej1jdKHJq0bBMQ5YbgstqjVSm8DKg8d3mj8j4mHFao0jT0OPjV8mH6dcMw0RYjBWVSMpvuRlGHlDeOVyMKz+Dr6ev0TznSVRB7ZtPlJtCxLqD6/oEhhHwEb4nuxhrQglW+1amibKFVsAPQFgZq5CdIocAjd8IfaTCi2PNJbmw5fa623hRqYXjoYzqUu1E5vIyLSwnLCDjHeJWK7L+FpfMDsaawhecEOraJIUm4xYU74TRaDj7mRivV9g7PGw2UsHNz4hJRs1bqk+o8LJbW+DQ632dUCj+LHhlNCe97BW8ygy0y26vUFPWXRAU56wyXuHfpFRzCwype+oQBHkaDycI7ibx9OK6W3DXkCK9W/CWAqH5kP7kijeWFQRH+NrvFh+XDwcTXodQfvjTZ3fujM153A5vsR8rFBwC8dKcx8sJh/jMWepexyEJQxN1QXhN3GQJ/uwQcN1c0OEQEk9I2HJ4S+QiY8mjkXGzMWTLnNmSgZLDkTFfV+El7w86qnO20DtfO5b/cXI99XK7eTSXO3UHx5VwBPn80OHbzeC0oS0KXIYconslzqGEoeGil1vGwWexyHE+kjVWvZyjTi7mD0sObhk3M+U5H1f7jfKIL0j0znDcNY8hUdhBImWkDB0VDiS4qG99rv3LHPNxeTypRDQa9RXTgXApk/FxJRxKA3mfL08S2IQz6suT+YXyHJfH8r8vRX0Z7GnTOufzrSovzhnUARtnwrtRnzMYCOmH1moevJU9aITiwvXfgCl6nNKdr6eMKrqjwonMsjMTOPk1lXE6S9hPQ6XosjOayXD5UDHqrOPzk0Yt63fJ1J3LzvI3ii+cUeKwQH55uUj8VXQ6ne1AgzqskyUxFXed0WiphJeriJuvohGCix8RaQwnr4a0kg8Nk+0LW8cd/Gg9Foutn77jPc/s7vpwVnu8mfE5nT6uPq1djjnq+FzVONRSCTSx2K4ScsK7sd11nLdr0VisjtWEfFzMqazY+m6MS7SPQj0aQxpRP18Qh546F4teM9CcxtIfkCupybdYGZb3Y5d8qF1dWlp6dzWcxj/J/ObWgvn8uqdfZUJVZiTiwRQykRvdH9NLS6uk9O1UcGmJHE1sNOMjFkLNw8RxjzdPOiC+2gzWi8X6+qr5z9inHjTCvOpTZouOCscGZmdn372JD6Jfs1+0y/PzWnRU/o5qcL5X/QE1Vb4VzszODihvBH3Ds7PK9WWg3eouKnx7Otjwg3ff8kIIrXL2fv8Q9ev/pAppSnXroUcvs1Lq269Q9Yy+zEb3gMKXr551vpW+UvUCXxpo4/hFN7bRnvDg6deKMx8s6C9xgpxU9RL0M+VjcFus+tkzVQ8y/t3XSJla98O4CgAAAAAAAAAAAAAAAAAAAAAAAAAAAAAAAAAAAAAAAAAAAAAAAAAAAAAAAAAAAAAAAAAAAAAAAAAAAAAA4H/LfwHU4O59EHTBqQAAAABJRU5ErkJggg==;clipPath=inset(35.33% 6.44% 34% 6.89%);" vertex="1" parent="CMM1cMtTfkDz5n-KOBCl-234">
          <mxGeometry x="8.814473684210528" y="40.559999999999995" width="145.2" height="51.38" as="geometry" />
        </mxCell>
        <mxCell id="CMM1cMtTfkDz5n-KOBCl-238" style="edgeStyle=orthogonalEdgeStyle;rounded=0;orthogonalLoop=1;jettySize=auto;html=1;entryX=1;entryY=0.5;entryDx=0;entryDy=0;strokeWidth=2;strokeColor=#4277bb;" edge="1" parent="144" target="CMM1cMtTfkDz5n-KOBCl-228">
          <mxGeometry relative="1" as="geometry">
            <mxPoint x="777.9" y="165.5" as="sourcePoint" />
          </mxGeometry>
        </mxCell>
        <mxCell id="CMM1cMtTfkDz5n-KOBCl-244" style="edgeStyle=orthogonalEdgeStyle;rounded=0;orthogonalLoop=1;jettySize=auto;html=1;entryX=0;entryY=0.5;entryDx=0;entryDy=0;strokeWidth=2;strokeColor=#4277bb;" edge="1" parent="1" source="CMM1cMtTfkDz5n-KOBCl-253" target="CMM1cMtTfkDz5n-KOBCl-245">
          <mxGeometry relative="1" as="geometry" />
        </mxCell>
        <mxCell id="CMM1cMtTfkDz5n-KOBCl-239" value="&lt;font color=&quot;#4277bb&quot;&gt;USER&lt;/font&gt;" style="points=[[0.35,0,0],[0.98,0.51,0],[1,0.71,0],[0.67,1,0],[0,0.795,0],[0,0.65,0]];verticalLabelPosition=bottom;sketch=0;html=1;verticalAlign=top;aspect=fixed;align=center;pointerEvents=1;shape=mxgraph.cisco19.user;fillColor=#005073;strokeColor=none;" vertex="1" parent="1">
          <mxGeometry x="46" y="647" width="70" height="70" as="geometry" />
        </mxCell>
        <mxCell id="CMM1cMtTfkDz5n-KOBCl-246" style="edgeStyle=orthogonalEdgeStyle;rounded=0;orthogonalLoop=1;jettySize=auto;html=1;entryX=0;entryY=0.5;entryDx=0;entryDy=0;strokeWidth=2;strokeColor=#4277bb;" edge="1" parent="1" source="CMM1cMtTfkDz5n-KOBCl-245" target="CMM1cMtTfkDz5n-KOBCl-220">
          <mxGeometry relative="1" as="geometry" />
        </mxCell>
        <mxCell id="CMM1cMtTfkDz5n-KOBCl-247" value="&lt;font style=&quot;font-size: 13px;&quot; color=&quot;#4277bb&quot;&gt;8090,&lt;br&gt;&lt;/font&gt;&lt;div&gt;&lt;font style=&quot;font-size: 13px;&quot; color=&quot;#4277bb&quot;&gt;443&lt;/font&gt;&lt;/div&gt;" style="edgeLabel;html=1;align=center;verticalAlign=middle;resizable=0;points=[];" vertex="1" connectable="0" parent="CMM1cMtTfkDz5n-KOBCl-246">
          <mxGeometry x="0.0854" relative="1" as="geometry">
            <mxPoint x="25" as="offset" />
          </mxGeometry>
        </mxCell>
        <mxCell id="CMM1cMtTfkDz5n-KOBCl-245" value="DNS MANAGER" style="shape=image;imageAspect=0;aspect=fixed;verticalLabelPosition=bottom;verticalAlign=top;image=data:image/png,iVBORw0KGgoAAAANSUhEUgAAAQAAAABVCAYAAACmRjqWAAAABmJLR0QA/wD/AP+gvaeTAAAPxUlEQVR42u1dCXRU5RUOrlWpS2tFhePMICLWqkVcQIG8mQARC1iFaKsUD+BSPdbluCB1e2ETF1RwQdRGBaWIkASQAIYiKqIiQlUWl4IICDQpAYbJMjOZ+XvvvDdhkvz/2+a92XK/c+6ZQ5j/vX+593v3v/f+b/LyCIQ2gvoJHtdB2XNtQHY/cVB2l4OsB9kFUgNSr3y6dsDnOpD5se8Vu4bWTejUkWaPQMhCBMZ5LgjIrifBoDeBsCRkI5DHxIDsOZ9mlUDIYDA57wgw1OHqk5w5IKsDxa4b2Ny8w2m2CYRMMfy8vHaBYvefwXXf6pDht5TNuKWgmScQ0gy/7O4GBvlJigy/hXiWHxjf+SxaBQIhDQAjvBOkLj3G3yR1/mLPzbQaBEKKsOepDseB4c1Js+E3E7/smsWmdTmaVodAcBD7Hz/jJAzGZZLxJwYJ/XLXk2mVCARHXP4zT1HSchlp/HFZt092n0irRSDYiJrJnU9wML1nt3xaJZ/bnlaNQLABkN8/DKL9FVli/HEpw/QkrR6BkLTr75mYZcavSLHrIVo9AiEJ+MedcTkYU2NWEoDsCh+QPZfQKhIIllz/048FQ9qSncbfJJuYfO5RtJoEglnXv9j9WJYbf0zg/MC9tJoEgglAXf+pIIFcIACQff5JHX9Nq0ogGCaA2FFelkPyKK0qoc2h+omzfwllsqPAAGarRTw1quyF1N4a+JzhL3ZfhUd54232yl2Oh7/7c4wAqtgznY4hjSC0CWDhjl/2TDHhxu8GQniAzehxJLS7KceMX4kFyK7rSTMIbWH/fgUo/B6LhrIhC8p9LR4YcleQdhByGhC5vw3z37lowHbUBaBnRFpCyFHj9xSBokfJ0DW8AIh3kKYQcs/th5dwqm/YJUPXkNopPV8lbSHkFPDQC7i3H5OB60to9asMsBrkuvrF17sa5vfrzOZKp4LQ6UFCdgLdWjJuAzLuTBb170ECYJFdq1ioVGop+0HWhEq9JSAj6uZLnUi7CJnv/suuRWTg+lI/exSLo3HtZB4BtJQoyMeh0vyb2bIBx5GmETIO+PYbivobk/CmJar5R1mo4hojBJAoVeFS6SHaKhAyCnDm3UvGbaAI6Mnu8NgPKea/73uzxp8o24Ol3mtI8wiZQQCy5w4ycH1pWDahyf2PfDszGQKIyyzyBgiZEAAcSwauL5E9m5sIIPzhHXYQAMqm+oV9PaSFhHR6AA+TgWtL3cwb2CHrr2OhsgK7CIAFS6VdwXkF9MOlhHTFANy3kpFrS+O2z5rsP1r9lW3GnyDVwXlSN9JGQuoJYJw7n4xcI/VXeg9LROSnpU4QAMqPbEFBB9JIgmPAir/aca7ucNrvbpASUPAPQL4lQxdE/p+9nEXr96eKAFBWsLlF9NPlBHtRJ3fpBLn+8aDUO8mwDRr/E91ZpPoH1hLR/33lJAEwqBUYQxpLsAXK7/C5poFCN5BRmzD+py+BUt9vGBeNQRZaeKWDJJBfW18muUl7CUnBL3cehG/pIYM2edpvxiAW3f8z00Jk85tOewHvkgYTrAf2ZLdM5/pNyoRuLPjRC2DdYaYL+E74kwecJIFosLzveaTJBNNBPsjrv0AGba7EN1j5OIsGqpkpNDawxm9eZqHyfs6QQJl3Jmk0weST3zMhJwyzuDMLTL6gldQ+14fVTu3bXKYPBLd9cDOpKymKFe8kSv3bo1j93Ntj0rDwQRZcNV3J70cbWVII+iEzsATIAK63phg8g/tZeOXtLFw5Ag4MDWWhBYVWSaCOVQw8nrSaYNT4h6XcUMd3ZaF1c1jjzn9D0Ozr5lL9Hxap+amZ4Fl6TKs1k2Aty3ngtqJhH4se3BHLIoSXXms0IDiSNJugi9qJrtPw12tSHjB7aQA8QaOMYGbrUM/C7w83SgDvkHYTDET8XTPTVyxzWSsXvPaVIa1c8JgbrrrgidKwcAxrWDS2ucDJu2Dl5OaycmrMbU+U0GclLLR2dnNZ/y4Lb1zcXDYvZY1bVimy7XMlym8XcUFaMOrfxqK7V7PI9koW2VLOIt+9xRo3zGCN66fAtmAcbAvGxA4QhZePNJtCrGIsrx1pOEHs+o93nQOGGKGAnnniCq58Dg731Ftw6UOxfT8adqi8v6MpQaoJIGgiIHteI4NOYhvzvJdFD+w2aPlRFtm6gIWXDHPU6JvVBMzzFpKWE/hpP/n0Y3PwN/hSTwIvFerm/6O1u1n4oztTZviH0oH5t5GmE/h7f3qbr32v+/5yjtj4925kocVXp974larAB0nTCYLUn/tZMl6bXvoxawTf+PHwj/Vcvg0vDMmfSJpOEBHASjJeuyoCL2xt/BDdDy0anDbjj3kA8/MfIU0niAjgZzJemwjg8fNa1/uvuCWtxk8xAIIeAdBv+dkVCHyud0pP/Jl4Z+CfSNMJnAxA3mFkuDa++mvOrQkv/qwF139QRhBAqNx7KWk7gQt4rVeAjNfWH/1Unv7fv5MZxl8qhdjr0i9I0wmCLYBrBxmvTe/9r/rukANQeWOmEMBa0nKCEH7Z/QYZrw3u/9sj8Te/amISPLAvXDEsAluAqKNS3j8ABl6jIdWhMukO0nICgUAgEAgEAoFAIBAIBAKBQCAQCAQCgUAgEAgEAqEtYsCAAcd5vd6r8vO9L0qS9z34/Bw+V0mSVAp//3t+fsHFZq8J7fKh/RiOHGH/COTD4H6XSpJvAsgiuMca6P8G+FwBn6/B53UgJ5q9at++fT28MRQUFPxWo81ZgjZdte4F3zlVMF9xuSs/3/cXGOcffD7fmcnMFlzrZJ17aQr0YZTO9Xvy2hUVFR3loBq3A72dAjIjUeC+o5Ocq9H6c+K7Gz5vhHkZAp+dLNyjfTLrAXKvaE5Q7/r06fMb4Y1hkh4BI9kPwnRkLSqfCQKYxL+OvQcVkLhgAb420P+DMNaJZogArl3Iuxb8/Xrt/nDbXKOjBBcZGEOi7IQ200G6WZizc03eq4X4vta6PszzWMHat3fK+mFMBYL+7k/mvsqDxPQcfQtz9FejD7v+/fufntx6eOt4D0Xogwx9eAofjDA/Q3lK8IPZm0G7koEDBx6dbgLA68D13rAwWVuhbxfkAAHEJYpeDnpxbZkAoE9lov6C53RbigkgLh/07t37pHQQAHjtXtUrnowPCliTe5r+E1zIC6GRP4kbLtUjAScJAF1J1b232v8A9K9HjhBA3Cg3gbvXoS0SQL9+/c6A6zdq9HkDusNpIAAgH++/9O7tBAHAGl8O8y0p23rpsSYCgP3AaYr7mNQNcWBT00UAoICv2tD/n/UMJrsIICZf9OrV65i2RgBiXUtc7wJvOgjAyNo7swWIrcP96P2ocZuCuPG8rmEUizFghk9H8BIGwL+LQfaKXE+Y1F6pJgBo31tjInbA+O6Dvl+GXg4aKjKwxvdfznwC8P0zIfg2Tglyehs0jPPhJAjgNfi/W/QE+jIsUwhA3QpWGSD8+XYRAFzrq8T5UI3sKY1+zLFGAL6n4br99AR03afhHZ3QFIuAzp7Nc5VgQBFRZFeJGPvWiQgj9QTgXSmY5OUiBcMIuqBNGObOlckEwLuX4sVJFYIx+WF7drwVAtAalxmkkgCgzyMMPiXDuFWwxwOQFgrW0C3YWm+wQgB62RYrrvPDAkOeotUOXWXBwMKiIIcTBICKj2TFc+f1ovtKSojLsndnGwEkxEFWC4JeRW2FANSUb8s1RS+pmjO+SU4SgPr9Sp5nmhEEAAvzCc+IhXnC5hM9SJCDdKeKADDXKiCwsXpt4UnfUUAei7ORANQx+QRtXrK2BZAewu2flmjVQKSaAGD4lwjGD+smPcv5vyqz+meSALAWYSNvy2CFANRrVerIe2YGs5Nzky9TG5ixTgBqzQIvwHOxsfHz6gXEAa1MJwDc2/HiATBPCxwMAn6TKQQA45jJuc+PamGYiORudIIAlGIe3LPzYysOBgHrzBhQkHOBJdlCAHDNaYJrug2Ofxmn/a5sJQBVQXdx5uOjXCcA9Fr5wdBDQVD496e8TIkNQcBakC1xgb9tR09aIwPRKyMIgB+llNZkkQdQzLsmRvwNjn+tGQ8AMyGCMdxglgCgzR/tJwAZqr289ZwxleU6AWCJOm87i8aUMKejBf3omcI6gKl690glAaznXCBUWFj4K722WGnWo0ePI9NLAL6bBde810D84EQcK6f9exptegqM8gGNNsOt5KEtxgAuE7SZlssEoG59tvOKoTAAmiAj1UrJln15KwUEEFWNv10SBPAFrNVcLTEzFlz4ZwQKoxkdRYKAwfyX07ZBlHJyggDwEIxgorbplcIqOXRuf+7SyH50FbD6m2bnGA4JnWcvAeDTX3pf0GaIU3UAejUAqSAAMOyrk3wqB41WTVokgDoswzU6nhSmAYVFNI2tDgskPPkFe2dc0NI01AGsF/VFVJ6snNLi7tE0c8NKqs0b4JUSw/268BZSUDhVp1c6bYYAkHSR+QVrWWOADLM6DahT3GWUBB5JggC2KjX2KPzzNEBSf8s4AlAVbYVgQrAYqARJAgMseKwVO6CcbOK7OFr19CICgL9fqVfZBOx8vkX2xyPAw9GowQhOwbHAuP7BS/+pCjndgAIs0TiNdxPI72CuzlELUrYK7vO+gXW5SO+pjPXc6H1on9703WfAE0wLAcDaDTZQ1aYZz8E0pMCtNys7jWxpBUHAZS22ibziulq9I+D6WwBpDOhyZyNi+Jg9noTDJ1LyEyg9by0GYOjapTrGUmGHAiBJGJivITbUgg9JggDMzNtqgyc10+QBGJLlOtd+0Ya1N1QwZYQA1Pl8UnCPT8GLPNzhIGA8EN7RjBdwXZIs+oHeyx2SIQC9um2lvtm3yenTgPHiDhxvkgrdzmkCUIpGpJMNPgQymQAqRddVtz5+s6SB70zg6Tv080M7CAAPYIk8ZcxWZBwBqEowFF+SYeXpbPDEWRIegHeesTywpSPBP4LL3t3ktgnOQ3g3W4mYG8mwJEkAuBUrseN9AJlBAOLtEu6rBf2+1mrcQGu7aZQAlOsX9BJsBYJ6759ICwEkRLnnGfEGYCA/4Supkk8D2kMA8XSQqhS7jURmsVLLqEFy7tUexvSKIJXYKjsC8sLgwYOPNXH9i0w+8Q/AeGYZfblJDhBAOx4JY3bKyKvG0N0XjPkVOwhA+S6/EhBLgbX6mDYCSAysKIsWe6L+oLpZe7DjeIgGq9jMvssPvn/FoUipWREX2vCAhoZ9xIAf9PszNUeMFXLrlVypdJOR/b7BVGRH5R1wvnexjBoDf2o1GL4ybTYSktEUU4v56mRgbu7D3DaWPhvZW2qsdwfBvP/epkCzlMTajzbTZyP7eAQG/JRXwjVvD2v2qM5YHuO8Z5CbOla2AtLzLb+vtumtvbWxOl+K6J0ARfwfClOq1mfffOQAAAAASUVORK5CYII=;fontColor=#4277bb;" vertex="1" parent="1">
          <mxGeometry x="301" y="664.75" width="106.17" height="35.25" as="geometry" />
        </mxCell>
        <mxCell id="CMM1cMtTfkDz5n-KOBCl-248" style="edgeStyle=orthogonalEdgeStyle;rounded=0;orthogonalLoop=1;jettySize=auto;html=1;entryX=0.98;entryY=0.51;entryDx=0;entryDy=0;entryPerimeter=0;strokeColor=#4277bb;strokeWidth=2;" edge="1" parent="1" source="CMM1cMtTfkDz5n-KOBCl-253" target="CMM1cMtTfkDz5n-KOBCl-239">
          <mxGeometry relative="1" as="geometry" />
        </mxCell>
        <mxCell id="CMM1cMtTfkDz5n-KOBCl-254" value="" style="edgeStyle=orthogonalEdgeStyle;rounded=0;orthogonalLoop=1;jettySize=auto;html=1;entryX=0.98;entryY=0.51;entryDx=0;entryDy=0;entryPerimeter=0;strokeColor=#4277bb;strokeWidth=2;" edge="1" parent="1" source="CMM1cMtTfkDz5n-KOBCl-245" target="CMM1cMtTfkDz5n-KOBCl-253">
          <mxGeometry relative="1" as="geometry">
            <mxPoint x="275" y="682" as="sourcePoint" />
            <mxPoint x="159" y="683" as="targetPoint" />
          </mxGeometry>
        </mxCell>
        <mxCell id="CMM1cMtTfkDz5n-KOBCl-255" value="" style="edgeStyle=orthogonalEdgeStyle;rounded=0;orthogonalLoop=1;jettySize=auto;html=1;entryX=0;entryY=0.5;entryDx=0;entryDy=0;strokeWidth=2;strokeColor=#4277bb;" edge="1" parent="1" source="CMM1cMtTfkDz5n-KOBCl-239" target="CMM1cMtTfkDz5n-KOBCl-253">
          <mxGeometry relative="1" as="geometry">
            <mxPoint x="160" y="682" as="sourcePoint" />
            <mxPoint x="301" y="682" as="targetPoint" />
          </mxGeometry>
        </mxCell>
        <mxCell id="CMM1cMtTfkDz5n-KOBCl-253" value="&lt;span style=&quot;color: rgb(66, 119, 187);&quot;&gt;BROWSER&lt;/span&gt;" style="sketch=0;pointerEvents=1;shadow=0;dashed=0;html=1;strokeColor=none;fillColor=#505050;labelPosition=center;verticalLabelPosition=bottom;verticalAlign=top;outlineConnect=0;align=center;shape=mxgraph.office.concepts.globe_internet;" vertex="1" parent="1">
          <mxGeometry x="196" y="657.5" width="49" height="49" as="geometry" />
        </mxCell>
      </root>
    </mxGraphModel>
  </diagram>
</mxfile>
